<svg id="Layer_1" data-name="Layer 1" xmlns="http://www.w3.org/2000/svg" viewBox="0 0 1000 1000"><title>build .0</title><path d="M74.56,672.94c0-38.34,0-76.68-.14-115,0-1.84,1.43-2.33,7.41-2.31q40.61.17,81.22,0c5.09,0,6,.46,6,1.92q-.18,115.65,0,231.28c0,1.52-1.15,1.91-6.07,1.9q-40.94-.13-81.88,0c-5.63,0-6.65-.49-6.64-2.13C74.6,750,74.56,711.49,74.56,672.94Z"/><path d="M200.3,740.06c0-16.8,0-33.6-.12-50.4,0-1,1-1.26,6.65-1.25q40.93.09,81.88,0c4.93,0,6.06.23,6.06,1.12q-.19,50.51,0,101c0,.86-.91,1.14-6,1.13q-40.93-.09-81.88,0c-5.47,0-6.74-.25-6.73-1.24C200.35,773.65,200.3,756.86,200.3,740.06Z"/><path d="M326.21,318.31c0-9.74.13-19.48-.13-29.22,0-1.65,1.22-2,6.1-2q41.24.13,82.48,0c5,0,6,.46,6,2.05q-.27,29.44,0,58.88c0,1.64-1.21,2-6.09,2q-41.23-.12-82.48,0c-5,0-6.06-.46-6-2C326.32,338.08,326.21,328.2,326.21,318.31Z"/><path d="M420.56,586.52c0,64-.12,127.91.12,191.86,0,10.47-1.05,13.41-6,13.3-27.71-.58-55.43-.48-83.14-.06-4.29.06-5.41-2.46-5.4-11.73q.21-193.29,0-386.57c0-9.12,1-11.89,5.35-11.82q41.89.66,83.79,0c4.29-.07,5.43,2.45,5.4,11.73C420.47,457.66,420.56,522.09,420.56,586.52Z"/><path d="M200.3,338.23c0-15.35.13-30.69-.08-46-.06-4,1-5.15,4.71-5.13q42.54.26,85.07,0c3.7,0,4.76,1.05,4.74,5.1q-.23,46,0,92.07c0,4-1,5.16-4.71,5.14q-42.54-.25-85.07,0c-3.7,0-4.8-1-4.74-5.1C200.43,368.92,200.3,353.57,200.3,338.23Z"/><path d="M452.29,537c0-77.93.13-155.86-.13-233.79,0-13.13,1.23-16.28,6.1-16.16q41.25,1,82.49,0c5-.13,6,3.63,6,16.39q-.25,235.53,0,471.07c0,13.13-1.22,16.29-6.1,16.17q-41.24-1-82.48,0c-5,.14-6.05-3.62-6-16.38C452.41,695.24,452.29,616.14,452.29,537Z"/><path d="M74.42,339.2c0-15.34.12-30.69-.08-46-.06-4,1-5.16,4.71-5.14q42.53.25,85.07,0c3.7,0,4.76,1,4.74,5.1q-.24,46,0,92.07c0,4-1,5.15-4.72,5.13q-42.52-.25-85.06,0c-3.7,0-4.8-1-4.75-5.1C74.55,369.89,74.42,354.55,74.42,339.2Z"/><path d="M578.37,337.59c0-15.9.13-31.81-.12-47.71,0-2.68,1.22-3.32,6.1-3.3q41.24.21,82.48,0c5,0,6,.74,6,3.34q-.26,48.07,0,96.14c0,2.68-1.22,3.32-6.09,3.3q-41.24-.21-82.49,0c-5,0-6-.73-6-3.34C578.49,369.88,578.37,353.74,578.37,337.59Z"/><path d="M672.73,538.09c0,36.95-.12,73.9.12,110.85,0,6-1.05,7.75-6,7.69-27.72-.34-55.43-.28-83.15,0-4.28,0-5.4-1.42-5.39-6.78q.21-111.67,0-223.35c0-5.27,1-6.87,5.35-6.83q41.91.38,83.8,0c4.28,0,5.43,1.42,5.4,6.78C672.64,463.64,672.73,500.86,672.73,538.09Z"/><path d="M672.73,739.79c0,16-.12,32.05.12,48.08,0,2.62-1.06,3.36-6,3.33q-41.56-.23-83.14,0c-4.29,0-5.4-.62-5.39-2.94q.21-48.43,0-96.87c0-2.29,1-3,5.35-3q41.9.17,83.8,0c4.28,0,5.42.62,5.39,2.94C672.64,707.5,672.73,723.64,672.73,739.79Z"/><path d="M200.3,470.8c0-15.35.13-30.7-.08-46-.06-4,1-5.15,4.71-5.13q42.54.24,85.07,0c3.7,0,4.76,1.05,4.74,5.1q-.23,46,0,92.07c0,4-1,5.15-4.71,5.13q-42.54-.24-85.07,0c-3.7,0-4.8-1-4.74-5.1C200.43,501.49,200.3,486.14,200.3,470.8Z"/><path d="M831.2,739.57c0-16.8,0-33.6-.13-50.4,0-1,1-1.26,6.66-1.25q40.93.09,81.88,0c4.92,0,6.06.22,6.06,1.11q-.21,50.52,0,101c0,.87-.92,1.14-6,1.13q-40.93-.08-81.88,0c-5.48,0-6.74-.24-6.73-1.23C831.25,773.17,831.2,756.37,831.2,739.57Z"/></svg>