<svg xmlns="http://www.w3.org/2000/svg" fill="#333" width="845.217" height="382.944" viewBox="0 0 845.217 382.944">
  <path d="M44.488,200.037V174.663q0-29.178,17.128-47.1T113,109.64q21.565,0,36.159,7.612t14.59,17.128q0,6.661-4.758,13.322t-11.418,6.661q-1.9,0-11.26-4.282a47.833,47.833,0,0,0-20.141-4.282q-30.771,0-30.768,28.958v25.187q0,28.962,31.084,28.958a44.068,44.068,0,0,0,19.984-4.6q9.2-4.6,11.735-4.6a15.2,15.2,0,0,1,12.529,6.344q4.914,6.35,4.916,13,0,9.837-15.382,17.922t-36.953,8.088q-34.575,0-51.7-17.762T44.488,200.037Z"/>
  <path d="M173.9,200.037V174.029q0-26.005,20.3-45.2t48.53-19.189q27.594,0,48.212,19.031t20.617,45.358v26.008q0,25.694-20.617,45.358t-48.212,19.666q-27.6,0-48.213-19.666T173.9,200.037Zm40.917-.093a28.654,28.654,0,0,0,8.246,20.146q8.245,8.817,19.666,8.812,11.1,0,19.507-8.812t8.4-20.146V174.128q0-10.7-8.4-19.512T242.728,145.8a26.242,26.242,0,0,0-19.666,8.658q-8.252,8.654-8.246,19.671Z"/>
  <path d="M320.118,248.031q0-8.355,6.978-16.71L389.582,143.9H334.709q-5.079,0-8.564-4.773a21.023,21.023,0,0,1-.159-22.956,10.272,10.272,0,0,1,8.723-4.624h93.252a13.439,13.439,0,0,1,9.516,3.543q3.807,3.546,3.806,10.017,0,8.994-6.343,17.351l-62.8,87.4h62.168q5.07,0,8.564,4.777a21.023,21.023,0,0,1,.159,22.956,10.272,10.272,0,0,1-8.723,4.619H334.074q-6.98,0-10.466-4.158A15.055,15.055,0,0,1,320.118,248.031Z"/>
  <path d="M452.067,314.061q0-17.916,10.466-17.916,14.906,0,29.34-10.69t16.018-35.545L453.335,134.167a14.709,14.709,0,0,1-1.268-5.343q0-7.545,9.356-13.524t17.921-5.978q9.516,0,11.736,6.919l38.063,94.04,30.766-94.04q2.217-6.913,10.785-6.919,8.246,0,18.08,6.136t9.833,14a11.959,11.959,0,0,1-.953,4.763L551.346,252.626l-5.393,13.966q-3.805,10.794-5.55,14.923t-6.027,12.856q-4.281,8.72-7.612,12.7-3.332,3.96-9.358,9.837a41.7,41.7,0,0,1-12.211,8.575,88.944,88.944,0,0,1-15.066,4.761,85.62,85.62,0,0,1-19.349,2.063q-9.2,0-13.956-3.649T452.067,314.061Z"/>
  <g>
    <path d="M783.935,142.295,713.18,101.448a11.63,11.63,0,0,0-11.579,0l-70.734,40.847a11.572,11.572,0,0,0-5.778,10.028v81.693a11.57,11.57,0,0,0,5.8,10.029l70.733,40.846a11.63,11.63,0,0,0,11.579,0l70.733-40.846a11.6,11.6,0,0,0,5.8-10.029V152.323A11.567,11.567,0,0,0,783.935,142.295ZM702.6,266.161c0,6.465-5.756,5.823-11.357,2.591l-51.65-29.8a11.485,11.485,0,0,1-5.8-9.83l.066-59.089a5.388,5.388,0,0,1,8.214-4.627l54.616,31.748c3.52,2.036,6.066,5.512,6.066,9.586Z"/>
    <path d="M669.241,230.713c-5.978-.287-13.151-6.221-14.479-12.043a30.188,30.188,0,0,1-.354-7.129,22.556,22.556,0,0,1,.288-5.269c.487-1.9,1.439-2.612,3.409-2.5a7.55,7.55,0,0,1,2.79.82,25.551,25.551,0,0,1,8.3,6.265,17.881,17.881,0,0,0,2.457,2.391c2.214,1.55,4.561.31,4.738-2.391a6.183,6.183,0,0,0-1.4-4.1,39.457,39.457,0,0,0-21.607-15.231c-5.491-1.55-9.3,1.262-10.162,6.885-.532,3.365-.2,6.752-.288,10.139a26.518,26.518,0,0,0,1.86,10.229c3.653,9.453,10.693,15.74,19.349,20.456a24.584,24.584,0,0,0,8.1,2.856c3.963.6,5.6-1.262,4.184-4.937C675.174,233.813,673.359,230.913,669.241,230.713Z"/>
    <path d="M685.07,239.569c-2.59-.709-4.383.642-4.361,3.254.022,3.875,3.9,9.033,7.66,10.162,2.634.8,4.406-.531,4.383-3.3C692.73,245.834,688.745,240.565,685.07,239.569Z"/>
  </g>
</svg>
