<svg width="423" height="116" viewBox="0 0 423 116" fill="none" xmlns="http://www.w3.org/2000/svg">
<path d="M122.231 88H152.311V77.36H133.671V65.2H151.511V54.72H133.671V42.64H152.311V32H122.231V88ZM160.669 88H190.429V77.36H172.109V32H160.669V88ZM196.997 88H227.077V77.36H208.437V65.2H226.277V54.72H208.437V42.64H227.077V32H196.997V88ZM235.434 88H246.074V39.68H247.674L248.154 53.04L255.274 88H269.034L276.074 53.04L276.634 39.68H278.234V88H288.874V32H270.714L263.194 70.64L262.954 80.32H261.354L261.034 70.64L253.594 32H235.434V88ZM299.263 88H329.343V77.36H310.703V65.2H328.543V54.72H310.703V42.64H329.343V32H299.263V88ZM337.7 88H347.94V39.68H349.54L350.42 56.16L360.34 88H377.22V32H366.9V80.32H365.3L364.34 63.76L354.58 32H337.7V88ZM396.904 88H408.344V42.64H422.184V32H383.144V42.64H396.904V88Z" fill="black"/>
<g clip-path="url(#clip0_2690_69425)">
<path d="M25.8891 76.4916C15.8075 78.8723 4.69541 73.2976 1.08896 62.3841C-3.02098 49.9737 4.94131 36.7619 17.8098 34.6641C22.5052 33.898 26.9547 34.6641 31.1583 36.8798C31.2988 36.9505 31.4745 36.9976 31.5447 37.1744C29.7766 38.1055 28.1724 39.2841 26.7439 40.6748C21.1118 46.1669 18.4304 52.8494 18.9104 60.7694C19.1095 64.0459 19.9994 67.1337 21.4045 70.0684C22.552 72.4609 24.1093 74.5587 25.8891 76.4916Z" fill="black"/>
<path d="M25.8891 76.4919C24.1093 74.5591 22.552 72.4494 21.4045 70.0687C19.9994 67.1223 19.1095 64.0462 18.9104 60.7698C18.442 52.8498 21.1118 46.1791 26.7439 40.6752C28.1724 39.2844 29.7766 38.1059 31.5447 37.1748C32.7742 37.6698 33.7929 38.4948 34.7881 39.3316C38.5117 42.5019 40.9706 46.4737 41.9191 51.2941C43.172 57.6348 41.9191 63.4687 38.0082 68.6544C34.917 72.7441 30.8538 75.3252 25.8774 76.4802L25.8891 76.4919Z" fill="black"/>
<path d="M48.7222 34.5346C48.7924 33.7804 49.214 33.1675 49.5652 32.5429C52.4925 27.1332 58.6867 24.175 64.8575 25.2004C70.8292 26.1904 75.712 31.0696 76.7658 37.0686C77.9719 43.9514 74.3771 50.7164 68.1127 53.3211C68.0424 53.3446 67.9722 53.3564 67.9019 53.38C67.4804 51.5768 66.8832 49.8325 66.087 48.1589C63.6749 43.1146 59.9747 39.3196 55.0569 36.7386C53.0663 35.6896 50.9586 34.8882 48.7104 34.5346H48.7222Z" fill="black"/>
<path d="M48.7222 34.5347C50.9703 34.8882 53.0663 35.6897 55.0686 36.7386C59.9865 39.3197 63.6749 43.1265 66.0987 48.159C66.8949 49.8325 67.4921 51.5768 67.9136 53.38C65.7474 54.3111 63.4992 54.6529 61.1457 54.4525C58.031 54.1815 55.291 53.0618 52.9258 51.0465C50.0804 48.6304 48.3826 45.5543 47.844 41.8418C47.5278 39.6968 47.7152 37.5872 48.3006 35.5129C48.3943 35.1711 48.4294 34.794 48.7339 34.5347H48.7222Z" fill="black"/>
<path d="M65.8645 70.0806C66.1806 70.1159 66.368 70.3634 66.5553 70.5756C69.8808 74.0406 71.0048 78.142 69.5412 82.7266C68.0541 87.3702 64.7521 90.1163 59.9513 90.8706C54.7173 91.6956 49.612 88.7609 47.4927 83.8463C47.68 83.5988 47.9845 83.6459 48.2304 83.5988C54.366 82.3613 59.4127 79.3206 63.2884 74.3706C64.3189 73.0506 65.2907 71.6952 65.8762 70.1041L65.8645 70.0806Z" fill="black"/>
<path d="M65.8646 70.0804C65.2792 71.6714 64.3073 73.0386 63.2769 74.3468C59.4011 79.3086 54.3661 82.3493 48.2188 83.575C47.9729 83.6222 47.6802 83.575 47.4811 83.8225C45.7247 79.4147 46.2516 75.3014 49.1789 71.5654C51.4154 68.725 54.4481 67.3343 57.9843 67.1811C60.736 67.0632 63.2652 67.9236 65.4782 69.6325C65.6304 69.7504 65.8061 69.8564 65.8529 70.0686L65.8646 70.0804Z" fill="black"/>
</g>
<defs>
<clipPath id="clip0_2690_69425">
<rect width="77" height="66" fill="white" transform="translate(0 25)"/>
</clipPath>
</defs>
</svg>
