<svg xmlns="http://www.w3.org/2000/svg" width="1000" height="1000" viewBox="0 0 1000 1000">
  <g>
    <path d="M192.133,463.3v9.147a.848.848,0,0,1-.261.837,1.045,1.045,0,0,1-.915.239H148.3V492H183.68a1.047,1.047,0,0,1,.915.24.846.846,0,0,1,.262.836v9.147a.848.848,0,0,1-.262.837,1.044,1.044,0,0,1-.915.239H148.3v27.265a.865.865,0,0,1-.358.715,1.054,1.054,0,0,1-.826.19H136.509a1.054,1.054,0,0,1-.826-.211.867.867,0,0,1-.357-.715V463.3a.846.846,0,0,1,.261-.836,1.047,1.047,0,0,1,.915-.24h54.451a1.047,1.047,0,0,1,.915.24.844.844,0,0,1,.261.836" fill="#67788a"/>
    <path d="M279.4,531.462H267.6a1.156,1.156,0,0,1-1.18-.9c-1.573-5.739-3.536-11.661-5.7-17.757H224.365a178.4,178.4,0,0,0-5.5,17.757,1.156,1.156,0,0,1-1.18.9h-11.4c-.786,0-1.18-.357-.983-1.073a435.784,435.784,0,0,1,27.715-66.733,2.182,2.182,0,0,1,2.146-1.255h15.329a2.179,2.179,0,0,1,2.145,1.255,428.657,428.657,0,0,1,27.712,66.73c.2.715-.2,1.073-.983,1.073m-22.8-29.239c-3.933-10.044-8.257-19.91-12.776-29.06h-2.557c-4.52,9.147-8.843,19.016-12.973,29.06Z" fill="#67788a"/>
    <path d="M298.657,497.561c0-21.526,15.526-36.408,37.545-36.408h1.573a34.536,34.536,0,0,1,30.269,15.787.841.841,0,0,1,.218.811.931.931,0,0,1-.612.623l-9.629,4.29a1.479,1.479,0,0,1-1.073.208,1.381,1.381,0,0,1-.9-.569,20.491,20.491,0,0,0-18.869-9.686h-1.377c-13.945,0-23.6,10.044-23.6,24.754s9.433,24.576,23.6,24.576h1.573a23.422,23.422,0,0,0,18.49-7.158,1.462,1.462,0,0,1,1.77-.358l9.826,4.291a.909.909,0,0,1,.59.715,1.213,1.213,0,0,1-.393.715c-6.079,8.071-16.9,12.916-30.072,12.916h-1.573c-22.405,0-37.345-14.171-37.345-35.339" fill="#67788a"/>
    <path d="M454.515,521.414v9.147a.848.848,0,0,1-.261.837,1.044,1.044,0,0,1-.915.239h-56.8a1.023,1.023,0,0,1-.776-.321.84.84,0,0,1-.207-.755V463.3a.838.838,0,0,1,.207-.754,1.028,1.028,0,0,1,.776-.322h55.817a1.047,1.047,0,0,1,.915.24.842.842,0,0,1,.261.836v9.147a.843.843,0,0,1-.261.837,1.044,1.044,0,0,1-.915.239H408.328v17.94h35.757a1.023,1.023,0,0,1,.776.321.843.843,0,0,1,.207.755v8.968a.942.942,0,0,1-.983.9H408.328v17.94h45.007a1.049,1.049,0,0,1,.826.189.865.865,0,0,1,.358.715" fill="#67788a"/>
    <path d="M552.4,512.446c0,12.2-10.22,19.016-28.105,19.016H486.947a1.053,1.053,0,0,1-.916-.239.85.85,0,0,1-.261-.837V463.3a.848.848,0,0,1,.261-.836,1.05,1.05,0,0,1,.916-.24h34c17.493,0,26.925,6.279,26.925,17.939,0,7.534-4.126,12.558-12.776,14.89,11.99,2.331,17.3,8.968,17.3,17.4m-31.824-39.283H498.757v18.476h21.812c9.826,0,14.35-2.861,14.35-9.329s-4.52-9.329-14.35-9.329m18.476,38.389c0-6.458-4.716-9.329-14.936-9.329H498.557V520.7h25.552c10.416,0,14.936-2.689,14.936-9.329" fill="#67788a"/>
    <path d="M575,496.839c0-20.808,15.132-35.876,38.914-35.876h1.574c23.782,0,38.914,15.068,38.914,35.876s-15.132,35.875-38.914,35.875h-1.574c-23.782,0-38.914-15.068-38.914-35.875m40.684,24.575c15.526,0,25.356-9.686,25.356-24.575s-9.826-24.576-25.356-24.576H614.11c-15.526,0-25.355,9.686-25.355,24.576s9.826,24.575,25.355,24.575Z" fill="#67788a"/>
    <path d="M676.613,496.839c0-20.808,15.133-35.876,38.915-35.876H717.1c23.782,0,38.914,15.068,38.914,35.876s-15.132,35.875-38.914,35.875h-1.573c-23.782,0-38.915-15.068-38.915-35.875M717.3,521.414c15.525,0,25.355-9.686,25.355-24.575s-9.826-24.576-25.355-24.576h-1.574c-15.525,0-25.355,9.686-25.355,24.576s9.826,24.575,25.355,24.575Z" fill="#67788a"/>
    <path d="M849.574,531.462H835.629a2.028,2.028,0,0,1-1.967-.9,285.06,285.06,0,0,0-31.252-28.7h-6.289v28.7a.868.868,0,0,1-.358.715,1.049,1.049,0,0,1-.826.189H784.128a1.049,1.049,0,0,1-.826-.189.868.868,0,0,1-.358-.715V463.3a.848.848,0,0,1,.261-.836,1.05,1.05,0,0,1,.916-.24H794.93a1.05,1.05,0,0,1,.916.24.848.848,0,0,1,.261.836v27.265h6.486a221.548,221.548,0,0,0,28.3-27.443,1.828,1.828,0,0,1,1.573-.716h13.169c.59,0,.984.358.984.716a1.217,1.217,0,0,1-.394.715,258.04,258.04,0,0,1-33.8,32.11,313.857,313.857,0,0,1,37.738,34.441c.59.715.2,1.255-.59,1.255" fill="#67788a"/>
  </g>
</svg>
