<svg width="413" height="155" viewBox="0 0 413 155" fill="none" xmlns="http://www.w3.org/2000/svg">
<path d="M43.0162 42.1903C43.3703 43.5967 43.5473 45.3546 43.5473 47.4641C43.5473 49.4857 43.3703 51.2437 43.0162 52.7379C43.3703 54.1442 43.5473 55.9022 43.5473 58.0117C43.5473 60.0333 43.3703 61.7912 43.0162 63.2855H37.7056C38.0596 64.6918 38.2366 66.4498 38.2366 68.5593C38.2366 70.5809 38.0596 72.3388 37.7056 73.8331H5.84171C5.48766 72.3388 5.31064 70.5809 5.31064 68.5593C5.31064 66.4498 5.48766 64.6918 5.84171 63.2855H0.531064C0.177021 61.7912 0 60.0333 0 58.0117C0 55.9022 0.177021 54.1442 0.531064 52.7379H11.1524C11.5064 54.1442 11.6834 55.9022 11.6834 58.0117C11.6834 60.0333 11.5064 61.7912 11.1524 63.2855H32.3949C32.0409 61.7912 31.8639 60.0333 31.8639 58.0117C31.8639 55.9022 32.0409 54.1442 32.3949 52.7379C32.0409 51.2437 31.8639 49.4857 31.8639 47.4641C31.8639 45.3546 32.0409 43.5967 32.3949 42.1903H5.84171C5.48766 40.6961 5.31064 38.9382 5.31064 36.9165C5.31064 34.807 5.48766 33.0491 5.84171 31.6427H0.531064C0.177021 30.1485 0 28.3906 0 26.369C0 24.2594 0.177021 22.5015 0.531064 21.0952C0.177021 19.6009 0 17.843 0 15.8214C0 13.7119 0.177021 11.9539 0.531064 10.5476H5.84171C5.48766 9.05334 5.31064 7.29541 5.31064 5.27379C5.31064 3.16427 5.48766 1.40634 5.84171 0H37.7056C38.0596 1.40634 38.2366 3.16427 38.2366 5.27379C38.2366 7.29541 38.0596 9.05334 37.7056 10.5476H43.0162C43.3703 11.9539 43.5473 13.7119 43.5473 15.8214C43.5473 17.843 43.3703 19.6009 43.0162 21.0952H32.3949C32.0409 19.6009 31.8639 17.843 31.8639 15.8214C31.8639 13.7119 32.0409 11.9539 32.3949 10.5476H11.1524C11.5064 11.9539 11.6834 13.7119 11.6834 15.8214C11.6834 17.843 11.5064 19.6009 11.1524 21.0952C11.5064 22.5015 11.6834 24.2594 11.6834 26.369C11.6834 28.3906 11.5064 30.1485 11.1524 31.6427H37.7056C38.0596 33.0491 38.2366 34.807 38.2366 36.9165C38.2366 38.9382 38.0596 40.6961 37.7056 42.1903H43.0162Z" fill="black"/>
<path d="M90.8639 63.2855C91.2179 64.6918 91.3949 66.4498 91.3949 68.5593C91.3949 70.5809 91.2179 72.3388 90.8639 73.8331H59C58.646 72.3388 58.4689 70.5809 58.4689 68.5593C58.4689 66.4498 58.646 64.6918 59 63.2855H69.6213C69.2672 61.7912 69.0902 60.0333 69.0902 58.0117C69.0902 55.9022 69.2672 54.1442 69.6213 52.7379C69.2672 51.2437 69.0902 49.4857 69.0902 47.4641C69.0902 45.3546 69.2672 43.5967 69.6213 42.1903C69.2672 40.6961 69.0902 38.9382 69.0902 36.9165C69.0902 34.807 69.2672 33.0491 69.6213 31.6427C69.2672 30.1485 69.0902 28.3906 69.0902 26.369C69.0902 24.2594 69.2672 22.5015 69.6213 21.0952H61.6553C61.3013 19.6009 61.1243 17.843 61.1243 15.8214C61.1243 13.7119 61.3013 11.9539 61.6553 10.5476H69.6213C69.2672 9.05334 69.0902 7.29541 69.0902 5.27379C69.0902 3.16427 69.2672 1.40634 69.6213 0H80.2426C80.5966 1.40634 80.7736 3.16427 80.7736 5.27379C80.7736 7.29541 80.5966 9.05334 80.2426 10.5476C80.5966 11.9539 80.7736 13.7119 80.7736 15.8214C80.7736 17.843 80.5966 19.6009 80.2426 21.0952C80.5966 22.5015 80.7736 24.2594 80.7736 26.369C80.7736 28.3906 80.5966 30.1485 80.2426 31.6427C80.5966 33.0491 80.7736 34.807 80.7736 36.9165C80.7736 38.9382 80.5966 40.6961 80.2426 42.1903C80.5966 43.5967 80.7736 45.3546 80.7736 47.4641C80.7736 49.4857 80.5966 51.2437 80.2426 52.7379C80.5966 54.1442 80.7736 55.9022 80.7736 58.0117C80.7736 60.0333 80.5966 61.7912 80.2426 63.2855H90.8639Z" fill="black"/>
<path d="M149.333 10.5476C149.687 11.9539 149.864 13.7119 149.864 15.8214C149.864 17.843 149.687 19.6009 149.333 21.0952C149.687 22.5015 149.864 24.2594 149.864 26.369C149.864 28.3906 149.687 30.1485 149.333 31.6427C149.687 33.0491 149.864 34.807 149.864 36.9165C149.864 38.9382 149.687 40.6961 149.333 42.1903C149.687 43.5967 149.864 45.3546 149.864 47.4641C149.864 49.4857 149.687 51.2437 149.333 52.7379C149.687 54.1442 149.864 55.9022 149.864 58.0117C149.864 60.0333 149.687 61.7912 149.333 63.2855C149.687 64.6918 149.864 66.4498 149.864 68.5593C149.864 70.5809 149.687 72.3388 149.333 73.8331H138.712C138.357 72.3388 138.18 70.5809 138.18 68.5593C138.18 66.4498 138.357 64.6918 138.712 63.2855C138.357 61.7912 138.18 60.0333 138.18 58.0117C138.18 55.9022 138.357 54.1442 138.712 52.7379C138.357 51.2437 138.18 49.4857 138.18 47.4641C138.18 45.3546 138.357 43.5967 138.712 42.1903C138.357 40.6961 138.18 38.9382 138.18 36.9165C138.18 34.807 138.357 33.0491 138.712 31.6427C138.357 30.1485 138.18 28.3906 138.18 26.369C138.18 24.2594 138.357 22.5015 138.712 21.0952H134.729C135.083 22.5015 135.26 24.2594 135.26 26.369C135.26 28.3906 135.083 30.1485 134.729 31.6427C135.083 33.0491 135.26 34.807 135.26 36.9165C135.26 38.9382 135.083 40.6961 134.729 42.1903H132.073C132.427 43.5967 132.604 45.3546 132.604 47.4641C132.604 49.4857 132.427 51.2437 132.073 52.7379C132.427 54.1442 132.604 55.9022 132.604 58.0117C132.604 60.0333 132.427 61.7912 132.073 63.2855H124.107C123.753 61.7912 123.576 60.0333 123.576 58.0117C123.576 55.9022 123.753 54.1442 124.107 52.7379C123.753 51.2437 123.576 49.4857 123.576 47.4641C123.576 45.3546 123.753 43.5967 124.107 42.1903H121.452C121.098 40.6961 120.921 38.9382 120.921 36.9165C120.921 34.807 121.098 33.0491 121.452 31.6427C121.098 30.1485 120.921 28.3906 120.921 26.369C120.921 24.2594 121.098 22.5015 121.452 21.0952H117.469C117.823 22.5015 118 24.2594 118 26.369C118 28.3906 117.823 30.1485 117.469 31.6427C117.823 33.0491 118 34.807 118 36.9165C118 38.9382 117.823 40.6961 117.469 42.1903C117.823 43.5967 118 45.3546 118 47.4641C118 49.4857 117.823 51.2437 117.469 52.7379C117.823 54.1442 118 55.9022 118 58.0117C118 60.0333 117.823 61.7912 117.469 63.2855C117.823 64.6918 118 66.4498 118 68.5593C118 70.5809 117.823 72.3388 117.469 73.8331H106.848C106.494 72.3388 106.317 70.5809 106.317 68.5593C106.317 66.4498 106.494 64.6918 106.848 63.2855C106.494 61.7912 106.317 60.0333 106.317 58.0117C106.317 55.9022 106.494 54.1442 106.848 52.7379C106.494 51.2437 106.317 49.4857 106.317 47.4641C106.317 45.3546 106.494 43.5967 106.848 42.1903C106.494 40.6961 106.317 38.9382 106.317 36.9165C106.317 34.807 106.494 33.0491 106.848 31.6427C106.494 30.1485 106.317 28.3906 106.317 26.369C106.317 24.2594 106.494 22.5015 106.848 21.0952C106.494 19.6009 106.317 17.843 106.317 15.8214C106.317 13.7119 106.494 11.9539 106.848 10.5476C106.494 9.05334 106.317 7.29541 106.317 5.27379C106.317 3.16427 106.494 1.40634 106.848 0H120.124C120.478 1.40634 120.655 3.16427 120.655 5.27379C120.655 7.29541 120.478 9.05334 120.124 10.5476H124.107C124.461 11.9539 124.638 13.7119 124.638 15.8214C124.638 17.843 124.461 19.6009 124.107 21.0952H126.099C126.453 22.5015 126.63 24.2594 126.63 26.369C126.63 28.3906 126.453 30.1485 126.099 31.6427H130.082C129.728 30.1485 129.551 28.3906 129.551 26.369C129.551 24.2594 129.728 22.5015 130.082 21.0952H132.073C131.719 19.6009 131.542 17.843 131.542 15.8214C131.542 13.7119 131.719 11.9539 132.073 10.5476H136.056C135.702 9.05334 135.525 7.29541 135.525 5.27379C135.525 3.16427 135.702 1.40634 136.056 0H149.333C149.687 1.40634 149.864 3.16427 149.864 5.27379C149.864 7.29541 149.687 9.05334 149.333 10.5476Z" fill="black"/>
<path d="M203.022 26.369C203.022 28.3906 202.845 30.1485 202.491 31.6427H197.18C197.534 33.0491 197.712 34.807 197.712 36.9165C197.712 38.9382 197.534 40.6961 197.18 42.1903H202.491C202.845 43.5967 203.022 45.3546 203.022 47.4641C203.022 49.4857 202.845 51.2437 202.491 52.7379C202.845 54.1442 203.022 55.9022 203.022 58.0117C203.022 60.0333 202.845 61.7912 202.491 63.2855H197.18C197.534 64.6918 197.712 66.4498 197.712 68.5593C197.712 70.5809 197.534 72.3388 197.18 73.8331H160.006C159.652 72.3388 159.475 70.5809 159.475 68.5593C159.475 66.4498 159.652 64.6918 160.006 63.2855C159.652 61.7912 159.475 60.0333 159.475 58.0117C159.475 55.9022 159.652 54.1442 160.006 52.7379C159.652 51.2437 159.475 49.4857 159.475 47.4641C159.475 45.3546 159.652 43.5967 160.006 42.1903C159.652 40.6961 159.475 38.9382 159.475 36.9165C159.475 34.807 159.652 33.0491 160.006 31.6427C159.652 30.1485 159.475 28.3906 159.475 26.369C159.475 24.2594 159.652 22.5015 160.006 21.0952C159.652 19.6009 159.475 17.843 159.475 15.8214C159.475 13.7119 159.652 11.9539 160.006 10.5476C159.652 9.05334 159.475 7.29541 159.475 5.27379C159.475 3.16427 159.652 1.40634 160.006 0H197.18C197.534 1.40634 197.712 3.16427 197.712 5.27379C197.712 7.29541 197.534 9.05334 197.18 10.5476H202.491C202.845 11.9539 203.022 13.7119 203.022 15.8214C203.022 17.843 202.845 19.6009 202.491 21.0952C202.845 22.5015 203.022 24.2594 203.022 26.369ZM191.87 31.6427C191.516 30.1485 191.339 28.3906 191.339 26.369C191.339 24.2594 191.516 22.5015 191.87 21.0952C191.516 19.6009 191.339 17.843 191.339 15.8214C191.339 13.7119 191.516 11.9539 191.87 10.5476H170.627C170.981 11.9539 171.158 13.7119 171.158 15.8214C171.158 17.843 170.981 19.6009 170.627 21.0952C170.981 22.5015 171.158 24.2594 171.158 26.369C171.158 28.3906 170.981 30.1485 170.627 31.6427H191.87ZM191.87 52.7379C191.516 51.2437 191.339 49.4857 191.339 47.4641C191.339 45.3546 191.516 43.5967 191.87 42.1903H170.627C170.981 43.5967 171.158 45.3546 171.158 47.4641C171.158 49.4857 170.981 51.2437 170.627 52.7379C170.981 54.1442 171.158 55.9022 171.158 58.0117C171.158 60.0333 170.981 61.7912 170.627 63.2855H191.87C191.516 61.7912 191.339 60.0333 191.339 58.0117C191.339 55.9022 191.516 54.1442 191.87 52.7379Z" fill="black"/>
<path d="M250.339 63.2855C250.693 64.6918 250.87 66.4498 250.87 68.5593C250.87 70.5809 250.693 72.3388 250.339 73.8331H218.475C218.121 72.3388 217.944 70.5809 217.944 68.5593C217.944 66.4498 218.121 64.6918 218.475 63.2855H229.096C228.742 61.7912 228.565 60.0333 228.565 58.0117C228.565 55.9022 228.742 54.1442 229.096 52.7379C228.742 51.2437 228.565 49.4857 228.565 47.4641C228.565 45.3546 228.742 43.5967 229.096 42.1903C228.742 40.6961 228.565 38.9382 228.565 36.9165C228.565 34.807 228.742 33.0491 229.096 31.6427C228.742 30.1485 228.565 28.3906 228.565 26.369C228.565 24.2594 228.742 22.5015 229.096 21.0952H221.13C220.776 19.6009 220.599 17.843 220.599 15.8214C220.599 13.7119 220.776 11.9539 221.13 10.5476H229.096C228.742 9.05334 228.565 7.29541 228.565 5.27379C228.565 3.16427 228.742 1.40634 229.096 0H239.717C240.071 1.40634 240.249 3.16427 240.249 5.27379C240.249 7.29541 240.071 9.05334 239.717 10.5476C240.071 11.9539 240.249 13.7119 240.249 15.8214C240.249 17.843 240.071 19.6009 239.717 21.0952C240.071 22.5015 240.249 24.2594 240.249 26.369C240.249 28.3906 240.071 30.1485 239.717 31.6427C240.071 33.0491 240.249 34.807 240.249 36.9165C240.249 38.9382 240.071 40.6961 239.717 42.1903C240.071 43.5967 240.249 45.3546 240.249 47.4641C240.249 49.4857 240.071 51.2437 239.717 52.7379C240.071 54.1442 240.249 55.9022 240.249 58.0117C240.249 60.0333 240.071 61.7912 239.717 63.2855H250.339Z" fill="black"/>
<path d="M294.734 5.27379C294.734 7.29541 294.557 9.05334 294.203 10.5476H280.927C280.573 9.05334 280.396 7.29541 280.396 5.27379C280.396 3.16427 280.573 1.40634 280.927 0H294.203C294.557 1.40634 294.734 3.16427 294.734 5.27379ZM280.927 52.7379C281.281 54.1442 281.458 55.9022 281.458 58.0117C281.458 60.0333 281.281 61.7912 280.927 63.2855H274.288C273.934 61.7912 273.757 60.0333 273.757 58.0117C273.757 55.9022 273.934 54.1442 274.288 52.7379H270.305C269.951 51.2437 269.774 49.4857 269.774 47.4641C269.774 45.3546 269.951 43.5967 270.305 42.1903C269.951 40.6961 269.774 38.9382 269.774 36.9165C269.774 34.807 269.951 33.0491 270.305 31.6427C269.951 30.1485 269.774 28.3906 269.774 26.369C269.774 24.2594 269.951 22.5015 270.305 21.0952H274.288C273.934 19.6009 273.757 17.843 273.757 15.8214C273.757 13.7119 273.934 11.9539 274.288 10.5476H280.927C281.281 11.9539 281.458 13.7119 281.458 15.8214C281.458 17.843 281.281 19.6009 280.927 21.0952C281.281 22.5015 281.458 24.2594 281.458 26.369C281.458 28.3906 281.281 30.1485 280.927 31.6427C281.281 33.0491 281.458 34.807 281.458 36.9165C281.458 38.9382 281.281 40.6961 280.927 42.1903C281.281 43.5967 281.458 45.3546 281.458 47.4641C281.458 49.4857 281.281 51.2437 280.927 52.7379ZM304.825 31.6427C305.179 33.0491 305.356 34.807 305.356 36.9165C305.356 38.9382 305.179 40.6961 304.825 42.1903C305.179 43.5967 305.356 45.3546 305.356 47.4641C305.356 49.4857 305.179 51.2437 304.825 52.7379H300.842C301.196 54.1442 301.373 55.9022 301.373 58.0117C301.373 60.0333 301.196 61.7912 300.842 63.2855H294.203C293.849 61.7912 293.672 60.0333 293.672 58.0117C293.672 55.9022 293.849 54.1442 294.203 52.7379C293.849 51.2437 293.672 49.4857 293.672 47.4641C293.672 45.3546 293.849 43.5967 294.203 42.1903C293.849 40.6961 293.672 38.9382 293.672 36.9165C293.672 34.807 293.849 33.0491 294.203 31.6427C293.849 30.1485 293.672 28.3906 293.672 26.369C293.672 24.2594 293.849 22.5015 294.203 21.0952C293.849 19.6009 293.672 17.843 293.672 15.8214C293.672 13.7119 293.849 11.9539 294.203 10.5476H300.842C301.196 11.9539 301.373 13.7119 301.373 15.8214C301.373 17.843 301.196 19.6009 300.842 21.0952H304.825C305.179 22.5015 305.356 24.2594 305.356 26.369C305.356 28.3906 305.179 30.1485 304.825 31.6427ZM280.396 68.5593C280.396 66.4498 280.573 64.6918 280.927 63.2855H294.203C294.557 64.6918 294.734 66.4498 294.734 68.5593C294.734 70.5809 294.557 72.3388 294.203 73.8331H280.927C280.573 72.3388 280.396 70.5809 280.396 68.5593Z" fill="black"/>
<path d="M362.497 5.27379C362.497 7.29541 362.32 9.05334 361.966 10.5476H346.034C346.388 11.9539 346.565 13.7119 346.565 15.8214C346.565 17.843 346.388 19.6009 346.034 21.0952C346.388 22.5015 346.565 24.2594 346.565 26.369C346.565 28.3906 346.388 30.1485 346.034 31.6427C346.388 33.0491 346.565 34.807 346.565 36.9165C346.565 38.9382 346.388 40.6961 346.034 42.1903C346.388 43.5967 346.565 45.3546 346.565 47.4641C346.565 49.4857 346.388 51.2437 346.034 52.7379C346.388 54.1442 346.565 55.9022 346.565 58.0117C346.565 60.0333 346.388 61.7912 346.034 63.2855C346.388 64.6918 346.565 66.4498 346.565 68.5593C346.565 70.5809 346.388 72.3388 346.034 73.8331H335.413C335.059 72.3388 334.882 70.5809 334.882 68.5593C334.882 66.4498 335.059 64.6918 335.413 63.2855C335.059 61.7912 334.882 60.0333 334.882 58.0117C334.882 55.9022 335.059 54.1442 335.413 52.7379C335.059 51.2437 334.882 49.4857 334.882 47.4641C334.882 45.3546 335.059 43.5967 335.413 42.1903C335.059 40.6961 334.882 38.9382 334.882 36.9165C334.882 34.807 335.059 33.0491 335.413 31.6427C335.059 30.1485 334.882 28.3906 334.882 26.369C334.882 24.2594 335.059 22.5015 335.413 21.0952C335.059 19.6009 334.882 17.843 334.882 15.8214C334.882 13.7119 335.059 11.9539 335.413 10.5476H319.481C319.127 9.05334 318.95 7.29541 318.95 5.27379C318.95 3.16427 319.127 1.40634 319.481 0H361.966C362.32 1.40634 362.497 3.16427 362.497 5.27379Z" fill="black"/>
<path d="M413 26.369C413 28.3906 412.823 30.1485 412.469 31.6427H407.158C407.512 33.0491 407.689 34.807 407.689 36.9165C407.689 38.9382 407.512 40.6961 407.158 42.1903H412.469C412.823 43.5967 413 45.3546 413 47.4641C413 49.4857 412.823 51.2437 412.469 52.7379C412.823 54.1442 413 55.9022 413 58.0117C413 60.0333 412.823 61.7912 412.469 63.2855H407.158C407.512 64.6918 407.689 66.4498 407.689 68.5593C407.689 70.5809 407.512 72.3388 407.158 73.8331H380.605C380.251 72.3388 380.074 70.5809 380.074 68.5593C380.074 66.4498 380.251 64.6918 380.605 63.2855H375.294C374.94 61.7912 374.763 60.0333 374.763 58.0117C374.763 55.9022 374.94 54.1442 375.294 52.7379H385.916C386.27 54.1442 386.447 55.9022 386.447 58.0117C386.447 60.0333 386.27 61.7912 385.916 63.2855H401.848C401.494 61.7912 401.317 60.0333 401.317 58.0117C401.317 55.9022 401.494 54.1442 401.848 52.7379C401.494 51.2437 401.317 49.4857 401.317 47.4641C401.317 45.3546 401.494 43.5967 401.848 42.1903H388.571C388.217 40.6961 388.04 38.9382 388.04 36.9165C388.04 34.807 388.217 33.0491 388.571 31.6427H401.848C401.494 30.1485 401.317 28.3906 401.317 26.369C401.317 24.2594 401.494 22.5015 401.848 21.0952C401.494 19.6009 401.317 17.843 401.317 15.8214C401.317 13.7119 401.494 11.9539 401.848 10.5476H385.916C386.27 11.9539 386.447 13.7119 386.447 15.8214C386.447 17.843 386.27 19.6009 385.916 21.0952H375.294C374.94 19.6009 374.763 17.843 374.763 15.8214C374.763 13.7119 374.94 11.9539 375.294 10.5476H380.605C380.251 9.05334 380.074 7.29541 380.074 5.27379C380.074 3.16427 380.251 1.40634 380.605 0H407.158C407.512 1.40634 407.689 3.16427 407.689 5.27379C407.689 7.29541 407.512 9.05334 407.158 10.5476H412.469C412.823 11.9539 413 13.7119 413 15.8214C413 17.843 412.823 19.6009 412.469 21.0952C412.823 22.5015 413 24.2594 413 26.369Z" fill="black"/>
<path d="M12.646 150.056C12.8119 150.715 12.8949 151.539 12.8949 152.528C12.8949 153.476 12.8119 154.3 12.646 155H3.93319C3.76724 154.3 3.68426 153.476 3.68426 152.528C3.68426 151.539 3.76724 150.715 3.93319 150.056C3.76724 149.355 3.68426 148.531 3.68426 147.584C3.68426 146.595 3.76724 145.771 3.93319 145.112C3.76724 144.411 3.68426 143.587 3.68426 142.64C3.68426 141.651 3.76724 140.827 3.93319 140.167C3.76724 139.467 3.68426 138.643 3.68426 137.695C3.68426 136.707 3.76724 135.883 3.93319 135.223C3.76724 134.523 3.68426 133.699 3.68426 132.751C3.68426 131.762 3.76724 130.938 3.93319 130.279C3.76724 129.579 3.68426 128.755 3.68426 127.807C3.68426 126.818 3.76724 125.994 3.93319 125.335C3.76724 124.635 3.68426 123.81 3.68426 122.863C3.68426 121.874 3.76724 121.05 3.93319 120.391C3.76724 119.69 3.68426 118.866 3.68426 117.919C3.68426 116.93 3.76724 116.106 3.93319 115.447C3.76724 114.746 3.68426 113.922 3.68426 112.974C3.68426 111.986 3.76724 111.162 3.93319 110.502H12.646C12.8119 111.162 12.8949 111.986 12.8949 112.974C12.8949 113.922 12.8119 114.746 12.646 115.447H8.91192C9.07788 116.106 9.16086 116.93 9.16086 117.919C9.16086 118.866 9.07788 119.69 8.91192 120.391C9.07788 121.05 9.16086 121.874 9.16086 122.863C9.16086 123.81 9.07788 124.635 8.91192 125.335C9.07788 125.994 9.16086 126.818 9.16086 127.807C9.16086 128.755 9.07788 129.579 8.91192 130.279C9.07788 130.938 9.16086 131.762 9.16086 132.751C9.16086 133.699 9.07788 134.523 8.91192 135.223C9.07788 135.883 9.16086 136.707 9.16086 137.695C9.16086 138.643 9.07788 139.467 8.91192 140.167C9.07788 140.827 9.16086 141.651 9.16086 142.64C9.16086 143.587 9.07788 144.411 8.91192 145.112C9.07788 145.771 9.16086 146.595 9.16086 147.584C9.16086 148.531 9.07788 149.355 8.91192 150.056H12.646Z" fill="black"/>
<path d="M66.4648 142.64C66.4648 143.587 66.3819 144.411 66.2159 145.112H63.7266C63.8925 145.771 63.9755 146.595 63.9755 147.584C63.9755 148.531 63.8925 149.355 63.7266 150.056H50.035C49.8691 149.355 49.7861 148.531 49.7861 147.584C49.7861 146.595 49.8691 145.771 50.035 145.112H61.2372C61.0712 144.411 60.9882 143.587 60.9882 142.64C60.9882 141.651 61.0712 140.827 61.2372 140.167H51.2797C51.1138 139.467 51.0308 138.643 51.0308 137.695C51.0308 136.707 51.1138 135.883 51.2797 135.223H48.7904C48.6244 134.523 48.5414 133.699 48.5414 132.751C48.5414 131.762 48.6244 130.938 48.7904 130.279H51.2797C51.1138 129.579 51.0308 128.755 51.0308 127.807C51.0308 126.818 51.1138 125.994 51.2797 125.335H64.9712C65.1372 125.994 65.2202 126.818 65.2202 127.807C65.2202 128.755 65.1372 129.579 64.9712 130.279H53.7691C53.935 130.938 54.018 131.762 54.018 132.751C54.018 133.699 53.935 134.523 53.7691 135.223H63.7266C63.8925 135.883 63.9755 136.707 63.9755 137.695C63.9755 138.643 63.8925 139.467 63.7266 140.167H66.2159C66.3819 140.827 66.4648 141.651 66.4648 142.64Z" fill="black"/>
<path d="M79.9317 120.391C79.7658 119.69 79.6828 118.866 79.6828 117.919C79.6828 116.93 79.7658 116.106 79.9317 115.447H84.9105C85.0764 116.106 85.1594 116.93 85.1594 117.919C85.1594 118.866 85.0764 119.69 84.9105 120.391H79.9317ZM89.8892 145.112C90.0551 145.771 90.1381 146.595 90.1381 147.584C90.1381 148.531 90.0551 149.355 89.8892 150.056H74.953C74.787 149.355 74.7041 148.531 74.7041 147.584C74.7041 146.595 74.787 145.771 74.953 145.112H79.9317C79.7658 144.411 79.6828 143.587 79.6828 142.64C79.6828 141.651 79.7658 140.827 79.9317 140.167C79.7658 139.467 79.6828 138.643 79.6828 137.695C79.6828 136.707 79.7658 135.883 79.9317 135.223C79.7658 134.523 79.6828 133.699 79.6828 132.751C79.6828 131.762 79.7658 130.938 79.9317 130.279H76.1977C76.0317 129.579 75.9487 128.755 75.9487 127.807C75.9487 126.818 76.0317 125.994 76.1977 125.335H84.9105C85.0764 125.994 85.1594 126.818 85.1594 127.807C85.1594 128.755 85.0764 129.579 84.9105 130.279C85.0764 130.938 85.1594 131.762 85.1594 132.751C85.1594 133.699 85.0764 134.523 84.9105 135.223C85.0764 135.883 85.1594 136.707 85.1594 137.695C85.1594 138.643 85.0764 139.467 84.9105 140.167C85.0764 140.827 85.1594 141.651 85.1594 142.64C85.1594 143.587 85.0764 144.411 84.9105 145.112H89.8892Z" fill="black"/>
<path d="M100.742 127.807C100.742 128.755 100.659 129.579 100.493 130.279H102.36C102.526 130.938 102.609 131.762 102.609 132.751C102.609 133.699 102.526 134.523 102.36 135.223C102.526 135.883 102.609 136.707 102.609 137.695C102.609 138.643 102.526 139.467 102.36 140.167C102.526 140.827 102.609 141.651 102.609 142.64C102.609 143.587 102.526 144.411 102.36 145.112C102.526 145.771 102.609 146.595 102.609 147.584C102.609 148.531 102.526 149.355 102.36 150.056H97.3816C97.2156 149.355 97.1326 148.531 97.1326 147.584C97.1326 146.595 97.2156 145.771 97.3816 145.112C97.2156 144.411 97.1326 143.587 97.1326 142.64C97.1326 141.651 97.2156 140.827 97.3816 140.167C97.2156 139.467 97.1326 138.643 97.1326 137.695C97.1326 136.707 97.2156 135.883 97.3816 135.223C97.2156 134.523 97.1326 133.699 97.1326 132.751C97.1326 131.762 97.2156 130.938 97.3816 130.279C97.2156 129.579 97.1326 128.755 97.1326 127.807C97.1326 126.818 97.2156 125.994 97.3816 125.335H100.493C100.659 125.994 100.742 126.818 100.742 127.807ZM107.588 127.807C107.588 128.755 107.505 129.579 107.339 130.279H109.206C109.372 130.938 109.455 131.762 109.455 132.751C109.455 133.699 109.372 134.523 109.206 135.223C109.372 135.883 109.455 136.707 109.455 137.695C109.455 138.643 109.372 139.467 109.206 140.167C109.372 140.827 109.455 141.651 109.455 142.64C109.455 143.587 109.372 144.411 109.206 145.112C109.372 145.771 109.455 146.595 109.455 147.584C109.455 148.531 109.372 149.355 109.206 150.056H105.472C105.306 149.355 105.223 148.531 105.223 147.584C105.223 146.595 105.306 145.771 105.472 145.112C105.306 144.411 105.223 143.587 105.223 142.64C105.223 141.651 105.306 140.827 105.472 140.167C105.306 139.467 105.223 138.643 105.223 137.695C105.223 136.707 105.306 135.883 105.472 135.223C105.306 134.523 105.223 133.699 105.223 132.751C105.223 131.762 105.306 130.938 105.472 130.279H102.36C102.194 129.579 102.111 128.755 102.111 127.807C102.111 126.818 102.194 125.994 102.36 125.335H107.339C107.505 125.994 107.588 126.818 107.588 127.807ZM117.296 135.223C117.462 135.883 117.545 136.707 117.545 137.695C117.545 138.643 117.462 139.467 117.296 140.167C117.462 140.827 117.545 141.651 117.545 142.64C117.545 143.587 117.462 144.411 117.296 145.112C117.462 145.771 117.545 146.595 117.545 147.584C117.545 148.531 117.462 149.355 117.296 150.056H112.318C112.152 149.355 112.069 148.531 112.069 147.584C112.069 146.595 112.152 145.771 112.318 145.112C112.152 144.411 112.069 143.587 112.069 142.64C112.069 141.651 112.152 140.827 112.318 140.167C112.152 139.467 112.069 138.643 112.069 137.695C112.069 136.707 112.152 135.883 112.318 135.223C112.152 134.523 112.069 133.699 112.069 132.751C112.069 131.762 112.152 130.938 112.318 130.279H109.206C109.04 129.579 108.957 128.755 108.957 127.807C108.957 126.818 109.04 125.994 109.206 125.335H114.807C114.973 125.994 115.056 126.818 115.056 127.807C115.056 128.755 114.973 129.579 114.807 130.279H117.296C117.462 130.938 117.545 131.762 117.545 132.751C117.545 133.699 117.462 134.523 117.296 135.223Z" fill="black"/>
<path d="M162.403 132.751C162.403 133.699 162.32 134.523 162.154 135.223C162.32 135.883 162.403 136.707 162.403 137.695C162.403 138.643 162.32 139.467 162.154 140.167H152.196C152.03 139.467 151.947 138.643 151.947 137.695C151.947 136.707 152.03 135.883 152.196 135.223C152.03 134.523 151.947 133.699 151.947 132.751C151.947 131.762 152.03 130.938 152.196 130.279H162.154C162.32 130.938 162.403 131.762 162.403 132.751Z" fill="black"/>
<path d="M202.032 140.167C202.198 140.827 202.281 141.651 202.281 142.64C202.281 143.587 202.198 144.411 202.032 145.112H199.543C199.709 145.771 199.792 146.595 199.792 147.584C199.792 148.531 199.709 149.355 199.543 150.056H197.053C196.887 149.355 196.804 148.531 196.804 147.584C196.804 146.595 196.887 145.771 197.053 145.112C196.887 144.411 196.804 143.587 196.804 142.64C196.804 141.651 196.887 140.827 197.053 140.167C196.887 139.467 196.804 138.643 196.804 137.695C196.804 136.707 196.887 135.883 197.053 135.223C196.887 134.523 196.804 133.699 196.804 132.751C196.804 131.762 196.887 130.938 197.053 130.279C196.887 129.579 196.804 128.755 196.804 127.807C196.804 126.818 196.887 125.994 197.053 125.335C196.887 124.635 196.804 123.81 196.804 122.863C196.804 121.874 196.887 121.05 197.053 120.391C196.887 119.69 196.804 118.866 196.804 117.919C196.804 116.93 196.887 116.106 197.053 115.447H202.032C202.198 116.106 202.281 116.93 202.281 117.919C202.281 118.866 202.198 119.69 202.032 120.391C202.198 121.05 202.281 121.874 202.281 122.863C202.281 123.81 202.198 124.635 202.032 125.335C202.198 125.994 202.281 126.818 202.281 127.807C202.281 128.755 202.198 129.579 202.032 130.279H204.521C204.687 130.938 204.77 131.762 204.77 132.751C204.77 133.699 204.687 134.523 204.521 135.223H202.032C202.198 135.883 202.281 136.707 202.281 137.695C202.281 138.643 202.198 139.467 202.032 140.167ZM217.217 137.695C217.217 138.643 217.134 139.467 216.968 140.167H214.479C214.645 140.827 214.728 141.651 214.728 142.64C214.728 143.587 214.645 144.411 214.479 145.112H209.5C209.334 144.411 209.251 143.587 209.251 142.64C209.251 141.651 209.334 140.827 209.5 140.167H211.99C211.824 139.467 211.741 138.643 211.741 137.695C211.741 136.707 211.824 135.883 211.99 135.223H209.5C209.334 134.523 209.251 133.699 209.251 132.751C209.251 131.762 209.334 130.938 209.5 130.279H204.521C204.356 129.579 204.273 128.755 204.273 127.807C204.273 126.818 204.356 125.994 204.521 125.335H211.99C212.156 125.994 212.238 126.818 212.238 127.807C212.238 128.755 212.156 129.579 211.99 130.279H214.479C214.645 130.938 214.728 131.762 214.728 132.751C214.728 133.699 214.645 134.523 214.479 135.223H216.968C217.134 135.883 217.217 136.707 217.217 137.695ZM201.783 147.584C201.783 146.595 201.866 145.771 202.032 145.112H209.5C209.666 145.771 209.749 146.595 209.749 147.584C209.749 148.531 209.666 149.355 209.5 150.056H202.032C201.866 149.355 201.783 148.531 201.783 147.584Z" fill="black"/>
<path d="M242.135 132.751C242.135 133.699 242.052 134.523 241.886 135.223C242.052 135.883 242.135 136.707 242.135 137.695C242.135 138.643 242.052 139.467 241.886 140.167H228.817C228.983 140.827 229.066 141.651 229.066 142.64C229.066 143.587 228.983 144.411 228.817 145.112H239.397C239.563 145.771 239.646 146.595 239.646 147.584C239.646 148.531 239.563 149.355 239.397 150.056H226.95C226.784 149.355 226.701 148.531 226.701 147.584C226.701 146.595 226.784 145.771 226.95 145.112H223.838C223.672 144.411 223.589 143.587 223.589 142.64C223.589 141.651 223.672 140.827 223.838 140.167H221.971C221.805 139.467 221.722 138.643 221.722 137.695C221.722 136.707 221.805 135.883 221.971 135.223H223.838C223.672 134.523 223.589 133.699 223.589 132.751C223.589 131.762 223.672 130.938 223.838 130.279H226.95C226.784 129.579 226.701 128.755 226.701 127.807C226.701 126.818 226.784 125.994 226.95 125.335H239.397C239.563 125.994 239.646 126.818 239.646 127.807C239.646 128.755 239.563 129.579 239.397 130.279H241.886C242.052 130.938 242.135 131.762 242.135 132.751ZM236.908 135.223C236.742 134.523 236.659 133.699 236.659 132.751C236.659 131.762 236.742 130.938 236.908 130.279H228.817C228.983 130.938 229.066 131.762 229.066 132.751C229.066 133.699 228.983 134.523 228.817 135.223H236.908Z" fill="black"/>
<path d="M286.992 132.751C286.992 133.699 286.909 134.523 286.743 135.223C286.909 135.883 286.992 136.707 286.992 137.695C286.992 138.643 286.909 139.467 286.743 140.167H276.786C276.62 139.467 276.537 138.643 276.537 137.695C276.537 136.707 276.62 135.883 276.786 135.223C276.62 134.523 276.537 133.699 276.537 132.751C276.537 131.762 276.62 130.938 276.786 130.279H286.743C286.909 130.938 286.992 131.762 286.992 132.751Z" fill="black"/>
<path d="M341.807 137.695C341.807 138.643 341.724 139.467 341.558 140.167H339.691C339.857 140.827 339.94 141.651 339.94 142.64C339.94 143.587 339.857 144.411 339.691 145.112H336.579C336.745 145.771 336.828 146.595 336.828 147.584C336.828 148.531 336.745 149.355 336.579 150.056H326.622C326.456 149.355 326.373 148.531 326.373 147.584C326.373 146.595 326.456 145.771 326.622 145.112H323.51C323.344 144.411 323.261 143.587 323.261 142.64C323.261 141.651 323.344 140.827 323.51 140.167H321.643C321.477 139.467 321.394 138.643 321.394 137.695C321.394 136.707 321.477 135.883 321.643 135.223H323.51C323.344 134.523 323.261 133.699 323.261 132.751C323.261 131.762 323.344 130.938 323.51 130.279H326.622C326.456 129.579 326.373 128.755 326.373 127.807C326.373 126.818 326.456 125.994 326.622 125.335H336.579C336.745 125.994 336.828 126.818 336.828 127.807C336.828 128.755 336.745 129.579 336.579 130.279H339.691C339.857 130.938 339.94 131.762 339.94 132.751C339.94 133.699 339.857 134.523 339.691 135.223H341.558C341.724 135.883 341.807 136.707 341.807 137.695ZM336.579 140.167C336.413 139.467 336.33 138.643 336.33 137.695C336.33 136.707 336.413 135.883 336.579 135.223H334.712C334.546 134.523 334.463 133.699 334.463 132.751C334.463 131.762 334.546 130.938 334.712 130.279H328.489C328.655 130.938 328.738 131.762 328.738 132.751C328.738 133.699 328.655 134.523 328.489 135.223H326.622C326.788 135.883 326.871 136.707 326.871 137.695C326.871 138.643 326.788 139.467 326.622 140.167H328.489C328.655 140.827 328.738 141.651 328.738 142.64C328.738 143.587 328.655 144.411 328.489 145.112H334.712C334.546 144.411 334.463 143.587 334.463 142.64C334.463 141.651 334.546 140.827 334.712 140.167H336.579Z" fill="black"/>
<path d="M363.987 145.112C364.153 145.771 364.236 146.595 364.236 147.584C364.236 148.531 364.153 149.355 363.987 150.056H354.029C353.863 149.355 353.78 148.531 353.78 147.584C353.78 146.595 353.863 145.771 354.029 145.112H351.54C351.374 144.411 351.291 143.587 351.291 142.64C351.291 141.651 351.374 140.827 351.54 140.167C351.374 139.467 351.291 138.643 351.291 137.695C351.291 136.707 351.374 135.883 351.54 135.223C351.374 134.523 351.291 133.699 351.291 132.751C351.291 131.762 351.374 130.938 351.54 130.279H346.561C346.395 129.579 346.312 128.755 346.312 127.807C346.312 126.818 346.395 125.994 346.561 125.335H351.54C351.374 124.635 351.291 123.81 351.291 122.863C351.291 121.874 351.374 121.05 351.54 120.391C351.374 119.69 351.291 118.866 351.291 117.919C351.291 116.93 351.374 116.106 351.54 115.447H356.518C356.684 116.106 356.767 116.93 356.767 117.919C356.767 118.866 356.684 119.69 356.518 120.391C356.684 121.05 356.767 121.874 356.767 122.863C356.767 123.81 356.684 124.635 356.518 125.335H363.987C364.153 125.994 364.236 126.818 364.236 127.807C364.236 128.755 364.153 129.579 363.987 130.279H356.518C356.684 130.938 356.767 131.762 356.767 132.751C356.767 133.699 356.684 134.523 356.518 135.223C356.684 135.883 356.767 136.707 356.767 137.695C356.767 138.643 356.684 139.467 356.518 140.167C356.684 140.827 356.767 141.651 356.767 142.64C356.767 143.587 356.684 144.411 356.518 145.112H363.987Z" fill="black"/>
<path d="M410.088 115.447C410.254 116.106 410.337 116.93 410.337 117.919C410.337 118.866 410.254 119.69 410.088 120.391C410.254 121.05 410.337 121.874 410.337 122.863C410.337 123.81 410.254 124.635 410.088 125.335C410.254 125.994 410.337 126.818 410.337 127.807C410.337 128.755 410.254 129.579 410.088 130.279C410.254 130.938 410.337 131.762 410.337 132.751C410.337 133.699 410.254 134.523 410.088 135.223C410.254 135.883 410.337 136.707 410.337 137.695C410.337 138.643 410.254 139.467 410.088 140.167C410.254 140.827 410.337 141.651 410.337 142.64C410.337 143.587 410.254 144.411 410.088 145.112C410.254 145.771 410.337 146.595 410.337 147.584C410.337 148.531 410.254 149.355 410.088 150.056C410.254 150.715 410.337 151.539 410.337 152.528C410.337 153.476 410.254 154.3 410.088 155H401.376C401.21 154.3 401.127 153.476 401.127 152.528C401.127 151.539 401.21 150.715 401.376 150.056H405.11C404.944 149.355 404.861 148.531 404.861 147.584C404.861 146.595 404.944 145.771 405.11 145.112C404.944 144.411 404.861 143.587 404.861 142.64C404.861 141.651 404.944 140.827 405.11 140.167C404.944 139.467 404.861 138.643 404.861 137.695C404.861 136.707 404.944 135.883 405.11 135.223C404.944 134.523 404.861 133.699 404.861 132.751C404.861 131.762 404.944 130.938 405.11 130.279C404.944 129.579 404.861 128.755 404.861 127.807C404.861 126.818 404.944 125.994 405.11 125.335C404.944 124.635 404.861 123.81 404.861 122.863C404.861 121.874 404.944 121.05 405.11 120.391C404.944 119.69 404.861 118.866 404.861 117.919C404.861 116.93 404.944 116.106 405.11 115.447H401.376C401.21 114.746 401.127 113.922 401.127 112.974C401.127 111.986 401.21 111.162 401.376 110.502H410.088C410.254 111.162 410.337 111.986 410.337 112.974C410.337 113.922 410.254 114.746 410.088 115.447Z" fill="black"/>
</svg>
