<svg xmlns="http://www.w3.org/2000/svg" xmlns:xlink="http://www.w3.org/1999/xlink" width="1000" height="1000" viewBox="0 0 1000 1000">
  <defs>
    <mask id="a" x="152.831" y="266.275" width="704.336" height="492.958" maskUnits="userSpaceOnUse">
      <path d="M153.607,266.275h703.56V757.733H153.607Z" fill="#fff" fill-rule="evenodd"/>
    </mask>
  </defs>
  <g>
    <g mask="url(#a)">
      <path d="M445.74,320.077A123.375,123.375,0,0,1,534.978,281.8c46.559,0,86.911,25.866,108.638,64.407a150.036,150.036,0,0,1,61.3-13.063c83.807,0,151.835,68.546,151.835,153.128S788.725,639.4,704.919,639.4a153.313,153.313,0,0,1-30-2.975,110.883,110.883,0,0,1-145.368,45.732,126.481,126.481,0,0,1-235.123-5.691,116.685,116.685,0,0,1-24.159,2.514c-64.924,0-117.433-53.284-117.433-118.726A119.316,119.316,0,0,1,211.548,457.3,136.03,136.03,0,0,1,200.3,402.983c0-75.529,61.3-136.573,136.832-136.573a136.231,136.231,0,0,1,108.638,53.8" fill="#00a1e0" fill-rule="evenodd"/>
    </g>
    <path d="M255.365,521.833c-.442,1.154.158,1.394.3,1.6a44.4,44.4,0,0,0,4.009,2.428,42.99,42.99,0,0,0,21.055,4.915c14.434,0,23.409-7.682,23.409-20.046v-.243c0-11.433-10.139-15.6-19.606-18.572l-1.239-.4c-7.165-2.323-13.347-4.346-13.347-9.053v-.241c0-4.035,3.621-7.01,9.208-7.01a41.7,41.7,0,0,1,18.339,4.682s1.4.9,1.912-.447c.276-.732,2.69-7.191,2.948-7.916a1.337,1.337,0,0,0-.7-1.624,40.874,40.874,0,0,0-20.693-5.561l-1.44,0c-13.218,0-22.452,7.993-22.452,19.426v.245c0,12.054,10.191,15.986,19.71,18.7l1.531.475c6.932,2.132,12.933,3.984,12.933,8.847v.243c0,4.475-3.9,7.811-10.165,7.811a34.087,34.087,0,0,1-18.6-5.354c-1.016-.592-1.6-1.019-2.38-1.5a1.154,1.154,0,0,0-1.9.652l-2.845,7.915m211.326,0c-.442,1.154.158,1.395.305,1.6A43.963,43.963,0,0,0,471,525.84a43,43,0,0,0,21.055,4.914c14.433,0,23.409-7.682,23.409-20.046v-.243c0-11.433-10.114-15.6-19.607-18.572l-1.239-.4c-7.165-2.323-13.347-4.346-13.347-9.053V482.2c0-4.035,3.621-7.009,9.209-7.009a41.8,41.8,0,0,1,18.339,4.681s1.4.906,1.914-.447c.274-.732,2.69-7.191,2.923-7.915a1.338,1.338,0,0,0-.7-1.625,40.887,40.887,0,0,0-20.693-5.561l-1.443,0c-13.218,0-22.452,7.993-22.452,19.426V484c0,12.053,10.191,15.985,19.71,18.7l1.529.476c6.958,2.131,12.933,3.983,12.933,8.846v.243c0,4.475-3.906,7.812-10.165,7.812a34.029,34.029,0,0,1-18.6-5.355c-1.017-.592-1.612-1-2.382-1.5a1.225,1.225,0,0,0-1.9.652l-2.846,7.915m144.334-24.211c0,6.984-1.3,12.493-3.855,16.4-2.545,3.854-6.388,5.742-11.743,5.742s-9.182-1.872-11.691-5.716c-2.527-3.88-3.8-9.415-3.8-16.4s1.283-12.468,3.8-16.322c2.5-3.828,6.311-5.665,11.691-5.665s9.209,1.855,11.743,5.665c2.566,3.854,3.855,9.338,3.855,16.322m12.053-12.959a29.106,29.106,0,0,0-5.483-10.476,26.268,26.268,0,0,0-9.261-7.036,33.633,33.633,0,0,0-25.866,0,26.592,26.592,0,0,0-9.26,7.036,29.216,29.216,0,0,0-5.483,10.476,48.193,48.193,0,0,0,0,25.918,29.024,29.024,0,0,0,5.483,10.475,26.052,26.052,0,0,0,9.26,6.984,34.257,34.257,0,0,0,25.841,0,25.977,25.977,0,0,0,9.26-6.984,29.18,29.18,0,0,0,5.483-10.475,48.272,48.272,0,0,0,0-25.918m99.068,33.108a1.145,1.145,0,0,0-1.539-.729,27.613,27.613,0,0,1-5.613,1.6,42.873,42.873,0,0,1-6.6.474c-5.82,0-10.476-1.736-13.787-5.174-3.336-3.44-5.2-8.975-5.173-16.476.018-6.829,1.668-11.951,4.63-15.882,2.923-3.88,7.424-5.9,13.373-5.9a40.445,40.445,0,0,1,12.752,1.824s.944.411,1.4-.833c1.058-2.923,1.839-5.018,2.974-8.226a1.083,1.083,0,0,0-.753-1.417,46.977,46.977,0,0,0-8.044-2.033,60.736,60.736,0,0,0-9.053-.605,32.789,32.789,0,0,0-13.425,2.584,27.779,27.779,0,0,0-9.7,7.035,29.89,29.89,0,0,0-5.872,10.476,41.65,41.65,0,0,0-1.966,12.985c0,9.984,2.69,18.08,8.019,24,5.328,5.949,13.347,8.949,23.8,8.949a48.86,48.86,0,0,0,17.071-3.052,1.1,1.1,0,0,0,.492-1.433l-2.975-8.174m21.081-26.9a23.485,23.485,0,0,1,3.311-9.623c2.5-3.828,6.311-5.923,11.666-5.923s8.9,2.106,11.432,5.923c1.682,2.522,2.416,5.872,2.69,9.623l-29.228-.006Zm40.61-8.536a25.575,25.575,0,0,0-5.225-9.545,23.831,23.831,0,0,0-7.76-5.9,29.745,29.745,0,0,0-11.691-2.372,32.087,32.087,0,0,0-13.477,2.612,26.873,26.873,0,0,0-9.389,7.165,29.471,29.471,0,0,0-5.536,10.6,45.883,45.883,0,0,0-1.789,13.011,44.013,44.013,0,0,0,1.849,13.037,26.223,26.223,0,0,0,16.192,17.175,40.91,40.91,0,0,0,14.821,2.4c11.8-.038,18-2.664,20.538-4.086.453-.254.88-.691.347-1.951L780,517a1.181,1.181,0,0,0-1.537-.711c-2.923,1.091-7.061,3.052-16.761,3.026-6.337-.01-11.019-1.88-13.968-4.811-3-3-4.5-7.372-4.733-13.58l40.868.031a1.2,1.2,0,0,0,1.188-1.06,43.67,43.67,0,0,0-1.219-17.563Zm-367.3,8.536a23.529,23.529,0,0,1,3.311-9.623c2.5-3.828,6.311-5.923,11.666-5.923s8.9,2.106,11.433,5.923c1.678,2.522,2.413,5.872,2.69,9.623l-29.229-.006Zm40.61-8.536a25.519,25.519,0,0,0-5.225-9.545,23.831,23.831,0,0,0-7.76-5.9,29.745,29.745,0,0,0-11.691-2.372,32.087,32.087,0,0,0-13.477,2.612,26.873,26.873,0,0,0-9.389,7.165,29.563,29.563,0,0,0-5.535,10.6,45.92,45.92,0,0,0-1.785,13.011,43.752,43.752,0,0,0,1.852,13.037,26.106,26.106,0,0,0,16.166,17.175,40.815,40.815,0,0,0,14.822,2.4c11.8-.038,18-2.664,20.537-4.086.45-.254.88-.691.344-1.951L453.285,517a1.183,1.183,0,0,0-1.539-.711c-2.923,1.091-7.061,3.052-16.761,3.026-6.311-.01-11.019-1.88-13.968-4.811-3-3-4.5-7.372-4.733-13.58l40.868.031a1.2,1.2,0,0,0,1.187-1.06,43.618,43.618,0,0,0-1.22-17.563ZM328.276,517.5a7.962,7.962,0,0,1-2.353-2.421,9.753,9.753,0,0,1-1.224-5.3c0-3.569,1.19-6.156,3.647-7.889-.026,0,3.518-3.052,11.847-2.949a82.932,82.932,0,0,1,11.071.944v18.546h0a82.444,82.444,0,0,1-11.019,1.467c-8.3.5-11.976-2.39-11.95-2.382Zm16.244-28.712c-1.655-.121-3.8-.181-6.363-.181a38.551,38.551,0,0,0-10.036,1.288,26.183,26.183,0,0,0-8.51,3.958,19.037,19.037,0,0,0-8.106,16.14,21.262,21.262,0,0,0,1.87,9.312,16.922,16.922,0,0,0,5.328,6.389,22.344,22.344,0,0,0,8.3,3.6,48.841,48.841,0,0,0,10.813,1.1,74.626,74.626,0,0,0,12.389-1.033q5.155-.888,10.269-2c1.361-.313,2.871-.725,2.871-.725a1.288,1.288,0,0,0,.932-1.334l-.024-37.248c0-8.173-2.183-14.252-6.492-18s-10.579-5.638-18.727-5.638a67.2,67.2,0,0,0-10.942,1.006s-8.9,1.728-12.571,4.6a1.268,1.268,0,0,0-.367,1.622l2.9,7.76a1.034,1.034,0,0,0,1.34.662,5.324,5.324,0,0,0,.67-.336c7.837-4.268,17.77-4.139,17.77-4.139,4.4,0,7.812.892,10.088,2.638,2.227,1.71,3.362,4.294,3.362,9.726v1.725c-3.491-.507-6.725-.8-6.725-.8Zm328.5-21.029a1.108,1.108,0,0,0-.578-1.455l-.035-.014a35.883,35.883,0,0,0-6.829-1.161,20.244,20.244,0,0,0-10.527,1.691,18.1,18.1,0,0,0-6.881,5.1l0-4.966a1.178,1.178,0,0,0-1.172-1.234h-10.45a1.182,1.182,0,0,0-1.169,1.234v60.785a1.242,1.242,0,0,0,1.239,1.239h10.709a1.239,1.239,0,0,0,1.236-1.239V497.211a35.771,35.771,0,0,1,1.348-10.709,15.355,15.355,0,0,1,3.569-6,12.386,12.386,0,0,1,5.044-3.026A19.869,19.869,0,0,1,664,476.7a22.9,22.9,0,0,1,4.475.549c.786.088,1.223-.394,1.49-1.1.7-1.865,2.69-7.45,3.078-8.562" fill="#fffffe" fill-rule="evenodd"/>
    <path d="M573,439.7a34.186,34.186,0,0,0-4.032-.957,31.608,31.608,0,0,0-5.546-.43c-7.38,0-13.2,2.085-17.281,6.2-4.056,4.087-6.816,10.313-8.2,18.5l-.5,2.765h-9.263a1.37,1.37,0,0,0-1.368,1.187l-1.521,8.484c-.106.812.243,1.319,1.33,1.314h9.017l-9.149,51.068a64.156,64.156,0,0,1-2.445,10.059,20.63,20.63,0,0,1-2.845,5.8,7.565,7.565,0,0,1-3.735,2.884,15.13,15.13,0,0,1-4.8.691,18.577,18.577,0,0,1-3.272-.36,9.726,9.726,0,0,1-2.2-.714,1.125,1.125,0,0,0-1.475.657c-.338.867-2.741,7.475-3.026,8.293a1.214,1.214,0,0,0,.629,1.627,30.621,30.621,0,0,0,3.727,1.089,24.652,24.652,0,0,0,5.978.569,29.836,29.836,0,0,0,10.015-1.552,18.753,18.753,0,0,0,7.54-5.264,27.065,27.065,0,0,0,5.3-9.126,77.964,77.964,0,0,0,3.585-13.709l9.192-52.014H562.1a1.376,1.376,0,0,0,1.368-1.187l1.521-8.484c.106-.812-.241-1.319-1.332-1.314H550.614a55.368,55.368,0,0,1,2.155-9.2,11.847,11.847,0,0,1,2.861-4.354,8.461,8.461,0,0,1,3.417-2.126,14.183,14.183,0,0,1,4.379-.631,16.99,16.99,0,0,1,3.352.339c1.265.269,1.756.411,2.088.509,1.329.406,1.508.013,1.769-.631l3.119-8.567A1.085,1.085,0,0,0,573,439.7M390.715,527.95a1.183,1.183,0,0,1-1.169,1.239h-10.82a1.183,1.183,0,0,1-1.172-1.239V440.864a1.178,1.178,0,0,1,1.172-1.231h10.82a1.178,1.178,0,0,1,1.169,1.231V527.95" fill="#fffffe" fill-rule="evenodd"/>
  </g>
</svg>
