<svg id="headerMedia" xmlns="http://www.w3.org/2000/svg" viewBox="0 0 958 958"><defs><style>.cls-1{fill:#494949;}.cls-2{fill:#a7d6a8;}.cls-3{fill:#48a1c7;}.cls-4{fill:#fa73ad;}.cls-5{fill:#fcc1b1;}.cls-6{fill:#f8f5eb;}.cls-7{fill:#fab2d1;}.cls-8{fill:#fcdfd7;}.cls-9{fill:#dbeee1;}.cls-10{fill:#a6c4d5;}.cls-11{fill:#ddd;}.cls-12{fill:#edeae1;}</style></defs><title>Artboard 5</title><rect class="cls-1" y="230.85" width="958" height="131.31"/><rect class="cls-2" y="362.16" width="958" height="131.31"/><rect class="cls-3" x="0.88" y="493.46" width="957.12" height="131.32"/><rect class="cls-4" y="756.07" width="958" height="201.93"/><rect class="cls-5" y="624.78" width="958" height="131.3" transform="translate(0.74 -0.51) rotate(0.06)"/><rect class="cls-6" width="958" height="230.85"/><path class="cls-7" d="M457.16,800.19c0,27.16-24.19,24.47-47.73,10.88l-95.33-55H240.37l212.7,122.82a48.85,48.85,0,0,0,48.65,0L714.41,756.07H457.27Z"/><path class="cls-8" d="M192.39,685.85A48.27,48.27,0,0,1,168,644.54l0-19.77H131.45v40.34a48.62,48.62,0,0,0,24.38,42.14l84.54,48.82H314.1Z"/><path class="cls-8" d="M457.27,756.07H714.41L799,707.25a48.72,48.72,0,0,0,24.37-42.14V624.77H457.62Z"/><path class="cls-8" d="M295.59,687.05a103.46,103.46,0,0,0,34.05,12c16.65,2.51,23.54-5.31,17.58-20.75-5.3-14-12.93-26.24-30.23-27.07-16.56-.8-35.16-12-47.61-26.46H226.17C242.76,651.73,267,671.48,295.59,687.05Z"/><path class="cls-8" d="M397.37,744.82c11.07,3.35,18.51-2.23,18.42-13.86-.09-16.19-16.84-38.33-32.28-42.52-10.89-3-18.42,2.7-18.33,13.68C365.27,718.4,381.55,740.07,397.37,744.82Z"/><path class="cls-9" d="M131.45,493.46h36.73l.11-97.22c0-17.95,19-28.47,34.52-19.44l200.7,116.66H823.33V362.16H131.45Z"/><path class="cls-9" d="M250.38,486.56c-13.93-3.93-25.21-1.09-32.82,6.9h52.21A171.68,171.68,0,0,0,250.38,486.56Z"/><polygon class="cls-10" points="168.18 493.46 131.45 493.46 131.45 624.77 168.04 624.77 168.18 493.46"/><path class="cls-10" d="M432.32,510.21c14.79,8.55,25.49,23.16,25.49,40.28l-.19,74.28H823.33V493.46H403.51Z"/><path class="cls-10" d="M256.14,600.62c-2-9-1.67-18.24-1.48-30,.28-5.67-.93-13.95,1.21-22.14,2-8,6-11,14.32-10.51,4.19.18,8.1,1.76,11.72,3.44,13.49,6.23,24.94,15.26,34.89,26.33,3.26,3.53,6.51,7.25,10.33,10.05,9.3,6.51,19.16,1.3,19.91-10.05.46-6.61-2.23-12.19-5.86-17.21-18.86-26-42.76-45.15-71.41-57.11H217.56c-5,5.25-8.45,12.66-9.88,22-2.24,14.14-.84,28.38-1.21,42.61a111.24,111.24,0,0,0,7.81,43,144.08,144.08,0,0,0,11.89,23.69h43.21C262.94,617.28,258.05,609,256.14,600.62Z"/><path class="cls-11" d="M131.45,321.82v40.34H823.33V321.82A48.61,48.61,0,0,0,799,279.67l-84.57-48.82H240.28l-84.55,48.82A48.65,48.65,0,0,0,131.45,321.82Z"/><path class="cls-12" d="M501.63,108A48.87,48.87,0,0,0,453,108L240.28,230.85H714.39Z"/></svg>