<svg id="headerMedia" xmlns="http://www.w3.org/2000/svg" viewBox="0 0 958 958"><defs><style>.cls-1{fill:#fa73ad;}.cls-2{fill:#fcc1b1;}.cls-3{fill:#a7d6a8;}.cls-4{fill:#48a1c7;}.cls-13,.cls-5{fill:#494949;}.cls-14,.cls-6{fill:#f8f5eb;}.cls-7{fill:#fab2d1;}.cls-8{fill:#fcdfd7;}.cls-9{fill:#dbeee1;}.cls-10{fill:#a6c4d5;}.cls-11{fill:#ddd;}.cls-12{fill:#edeae1;}.cls-13,.cls-14{font-size:12px;font-family:MyriadPro-Regular, Myriad Pro;}.cls-15{letter-spacing:-0.02em;}.cls-16{letter-spacing:-0.08em;}</style></defs><title>Artboard 6</title><rect class="cls-1" x="102.73" y="660.03" width="384.7" height="87.61"/><rect class="cls-2" x="102.73" y="572.42" width="384.7" height="87.61"/><rect class="cls-3" x="102.73" y="397.2" width="384.7" height="87.61"/><rect class="cls-4" x="102.73" y="484.81" width="384.7" height="87.61"/><rect class="cls-5" x="102.73" y="309.59" width="384.7" height="87.61"/><rect class="cls-6" x="102.73" y="221.98" width="384.7" height="87.61"/><rect class="cls-7" x="504.04" y="660.03" width="384.7" height="87.61"/><rect class="cls-8" x="504.04" y="572.42" width="384.7" height="87.61"/><rect class="cls-9" x="504.04" y="397.2" width="384.7" height="87.61"/><rect class="cls-10" x="504.04" y="484.81" width="384.7" height="87.61"/><rect class="cls-11" x="504.04" y="309.59" width="384.7" height="87.61"/><rect class="cls-12" x="504.04" y="221.98" width="384.7" height="87.61"/><text class="cls-13" transform="translate(274.57 271.17)">#F8F5EB</text><text class="cls-14" transform="translate(274.57 356.67)">#494949</text><text class="cls-14" transform="translate(274.56 446.67)">#A7D6A8</text><text class="cls-14" transform="translate(279.26 534.52)">#48A1C7</text><text class="cls-14" transform="translate(280.83 616.22)">#F<tspan class="cls-15" x="11.81" y="0">C</tspan><tspan x="18.52" y="0">C1B1</tspan></text><text class="cls-14" transform="translate(282.39 708.26)">#<tspan class="cls-16" x="5.96" y="0">F</tspan><tspan x="10.87" y="0">A73AD</tspan></text><text class="cls-13" transform="translate(664.59 271.17)">#EDEAE1</text><text class="cls-13" transform="translate(664.59 356.67)">#DDDDDD</text><text class="cls-13" transform="translate(664.59 446.67)">#DBEEE1</text><text class="cls-13" transform="translate(669.29 534.52)">#A6C4D5</text><text class="cls-13" transform="translate(670.85 616.22)">#FCDFD7</text><text class="cls-13" transform="translate(672.42 708.26)">#<tspan class="cls-16" x="5.96" y="0">F</tspan><tspan x="10.87" y="0">AB2D1</tspan></text></svg>