<svg id="Layer_1" data-name="Layer 1" xmlns="http://www.w3.org/2000/svg" viewBox="0 0 651.13 550.96"><defs><style>.clsa-1,.clsa-3{fill:none;stroke-miterlimit:10;stroke-width:7px;}.clsa-1{stroke:#666;}.clsa-2{fill:#666;}.clsa-3{stroke:#000;}</style></defs><title>Artboard 5</title><rect class="clsa-1" x="177.86" y="104.35" width="342.78" height="342.78" rx="11.54"/><path class="clsa-2" d="M221.09,170.4a21.74,21.74,0,0,1-21.78-21.78c0-13.2,11.52-21.9,24.12-21.9a25.82,25.82,0,0,1,3.72.24v42.6A22.4,22.4,0,0,1,221.09,170.4Zm9.18-42.9a22.87,22.87,0,0,1,17.16,22.2v19.86H230.27Z"/><path class="clsa-2" d="M255,149.7a22.8,22.8,0,0,1,17.16-22.14V179.1H255ZM275.27,127a21.1,21.1,0,0,1,3.36-.24c11.34,0,21.72,7.86,21.72,19.74a19.58,19.58,0,0,1-19.62,19.56,20.66,20.66,0,0,1-5.46-.72Z"/><path class="clsa-2" d="M306.89,149.7a22.8,22.8,0,0,1,17.16-22.14V179.1H306.89ZM327.17,127a21.1,21.1,0,0,1,3.36-.24c11.34,0,21.72,7.86,21.72,19.74a19.58,19.58,0,0,1-19.62,19.56,20.66,20.66,0,0,1-5.46-.72Z"/><path class="clsa-2" d="M381.17,166.26a17.75,17.75,0,0,0,15.66-9.36l3.54,1.86a21.79,21.79,0,0,1-41-10.38V127.86h21.78Z"/><path class="clsa-2" d="M425.09,166.44a17.75,17.75,0,0,0,15.66-9.36l3.54,1.86a21.69,21.69,0,0,1-19.2,11.46,21.81,21.81,0,0,1,0-43.62Zm3.12-19.56v-20a22.08,22.08,0,0,1,18.6,20Z"/><path class="clsa-2" d="M487.79,149.88A21.88,21.88,0,0,1,466,169.56H450.83V149.88Zm5.76-3.12H456.89a21.81,21.81,0,0,1,21.6-18.9h15.06Z"/><path class="clsa-2" d="M221.09,254.09a21.74,21.74,0,0,1-21.78-21.78c0-13.2,11.52-21.9,24.12-21.9a25.82,25.82,0,0,1,3.72.24v42.6A22.4,22.4,0,0,1,221.09,254.09Zm9.18-42.9a22.87,22.87,0,0,1,17.16,22.2v19.86H230.27Z"/><path class="clsa-2" d="M255,233.39a22.8,22.8,0,0,1,17.16-22.14v51.54H255Zm20.28-22.68a21.1,21.1,0,0,1,3.36-.24c11.34,0,21.72,7.86,21.72,19.74a19.58,19.58,0,0,1-19.62,19.56,20.66,20.66,0,0,1-5.46-.72Z"/><path class="clsa-2" d="M306.89,233.39a22.8,22.8,0,0,1,17.16-22.14v51.54H306.89Zm20.28-22.68a21.1,21.1,0,0,1,3.36-.24c11.34,0,21.72,7.86,21.72,19.74a19.58,19.58,0,0,1-19.62,19.56,20.66,20.66,0,0,1-5.46-.72Z"/><path class="clsa-2" d="M381.17,250a17.75,17.75,0,0,0,15.66-9.36l3.54,1.86a21.79,21.79,0,0,1-41-10.38V211.55h21.78Z"/><path class="clsa-2" d="M425.09,250.13a17.75,17.75,0,0,0,15.66-9.36l3.54,1.86a21.69,21.69,0,0,1-19.2,11.46,21.81,21.81,0,0,1,0-43.62Zm3.12-19.56v-20a22.08,22.08,0,0,1,18.6,20Z"/><path class="clsa-2" d="M487.79,233.57A21.88,21.88,0,0,1,466,253.25H450.83V233.57Zm5.76-3.12H456.89a21.81,21.81,0,0,1,21.6-18.9h15.06Z"/><path class="clsa-2" d="M221.09,337a21.74,21.74,0,0,1-21.78-21.78c0-13.2,11.52-21.9,24.12-21.9a25.82,25.82,0,0,1,3.72.24v42.6A22.4,22.4,0,0,1,221.09,337Zm9.18-42.9a22.87,22.87,0,0,1,17.16,22.2V336.2H230.27Z"/><path class="clsa-2" d="M255,316.34a22.8,22.8,0,0,1,17.16-22.14v51.54H255Zm20.28-22.67a20,20,0,0,1,3.36-.25c11.34,0,21.72,7.86,21.72,19.74a19.58,19.58,0,0,1-19.62,19.56,20.66,20.66,0,0,1-5.46-.72Z"/><path class="clsa-2" d="M306.89,316.34a22.8,22.8,0,0,1,17.16-22.14v51.54H306.89Zm20.28-22.67a20,20,0,0,1,3.36-.25c11.34,0,21.72,7.86,21.72,19.74a19.58,19.58,0,0,1-19.62,19.56,20.66,20.66,0,0,1-5.46-.72Z"/><path class="clsa-2" d="M381.17,332.9a17.75,17.75,0,0,0,15.66-9.36l3.54,1.86a21.79,21.79,0,0,1-41-10.38V294.5h21.78Z"/><path class="clsa-2" d="M425.09,333.08a17.75,17.75,0,0,0,15.66-9.36l3.54,1.86A21.69,21.69,0,0,1,425.09,337a21.81,21.81,0,0,1,0-43.62Zm3.12-19.56v-20a22.08,22.08,0,0,1,18.6,20Z"/><path class="clsa-2" d="M487.79,316.52A21.88,21.88,0,0,1,466,336.2H450.83V316.52Zm5.76-3.12H456.89a21.81,21.81,0,0,1,21.6-18.9h15.06Z"/><path class="clsa-2" d="M221.09,419.8A21.74,21.74,0,0,1,199.31,398c0-13.19,11.52-21.89,24.12-21.89a25.82,25.82,0,0,1,3.72.24V419A22.4,22.4,0,0,1,221.09,419.8Zm9.18-42.89a22.87,22.87,0,0,1,17.16,22.19V419H230.27Z"/><path class="clsa-2" d="M255,399.1A22.8,22.8,0,0,1,272.15,377V428.5H255Zm20.28-22.67a21.1,21.1,0,0,1,3.36-.24c11.34,0,21.72,7.86,21.72,19.73a19.58,19.58,0,0,1-19.62,19.56,20.66,20.66,0,0,1-5.46-.72Z"/><path class="clsa-2" d="M306.89,399.1A22.8,22.8,0,0,1,324.05,377V428.5H306.89Zm20.28-22.67a21.1,21.1,0,0,1,3.36-.24c11.34,0,21.72,7.86,21.72,19.73a19.58,19.58,0,0,1-19.62,19.56,20.66,20.66,0,0,1-5.46-.72Z"/><path class="clsa-2" d="M381.17,415.66a17.75,17.75,0,0,0,15.66-9.36l3.54,1.86a21.79,21.79,0,0,1-41-10.38V377.27h21.78Z"/><path class="clsa-2" d="M425.09,415.84a17.75,17.75,0,0,0,15.66-9.36l3.54,1.86a21.69,21.69,0,0,1-19.2,11.46,21.81,21.81,0,0,1,0-43.61Zm3.12-19.56v-20a22.08,22.08,0,0,1,18.6,20Z"/><path class="clsa-2" d="M487.79,399.28A21.88,21.88,0,0,1,466,419H450.83V399.28Zm5.76-3.12H456.89a21.81,21.81,0,0,1,21.6-18.89h15.06Z"/><path d="M219.13,168.26a21.73,21.73,0,0,1-21.78-21.77c0-13.2,11.52-21.9,24.12-21.9a25.82,25.82,0,0,1,3.72.24v42.59A22.4,22.4,0,0,1,219.13,168.26Zm9.18-42.89a22.87,22.87,0,0,1,17.16,22.2v19.85H228.31Z"/><path d="M253,147.57a22.8,22.8,0,0,1,17.16-22.14V177H253Zm20.28-22.68a21.1,21.1,0,0,1,3.36-.24c11.34,0,21.72,7.86,21.72,19.74a19.57,19.57,0,0,1-19.62,19.55,20.65,20.65,0,0,1-5.46-.71Z"/><path d="M304.93,147.57a22.8,22.8,0,0,1,17.16-22.14V177H304.93Zm20.28-22.68a21.1,21.1,0,0,1,3.36-.24c11.34,0,21.72,7.86,21.72,19.74a19.57,19.57,0,0,1-19.62,19.55,20.65,20.65,0,0,1-5.46-.71Z"/><path d="M379.21,164.12a17.74,17.74,0,0,0,15.66-9.35l3.54,1.86a21.8,21.8,0,0,1-41-10.38V125.73h21.78Z"/><path d="M423.13,164.31A17.77,17.77,0,0,0,438.79,155l3.54,1.86a21.68,21.68,0,0,1-19.2,11.45,21.81,21.81,0,0,1,0-43.61Zm3.12-19.56v-20a22.08,22.08,0,0,1,18.6,20Z"/><path d="M485.83,147.75a21.88,21.88,0,0,1-21.78,19.67H448.87V147.75Zm5.76-3.12H454.93a21.81,21.81,0,0,1,21.6-18.9h15.06Z"/><path d="M219.13,252a21.74,21.74,0,0,1-21.78-21.78c0-13.2,11.52-21.9,24.12-21.9a24.48,24.48,0,0,1,3.72.25v42.59A22.4,22.4,0,0,1,219.13,252Zm9.18-42.89a22.85,22.85,0,0,1,17.16,22.19v19.86H228.31Z"/><path d="M253,231.25a22.8,22.8,0,0,1,17.16-22.14v51.54H253Zm20.28-22.67a21.11,21.11,0,0,1,3.36-.25c11.34,0,21.72,7.86,21.72,19.74a19.58,19.58,0,0,1-19.62,19.56,20.66,20.66,0,0,1-5.46-.72Z"/><path d="M304.93,231.25a22.8,22.8,0,0,1,17.16-22.14v51.54H304.93Zm20.28-22.67a21.11,21.11,0,0,1,3.36-.25c11.34,0,21.72,7.86,21.72,19.74a19.58,19.58,0,0,1-19.62,19.56,20.66,20.66,0,0,1-5.46-.72Z"/><path d="M379.21,247.81a17.75,17.75,0,0,0,15.66-9.36l3.54,1.86a21.79,21.79,0,0,1-41-10.38V209.42h21.78Z"/><path d="M423.13,248a17.75,17.75,0,0,0,15.66-9.36l3.54,1.86A21.69,21.69,0,0,1,423.13,252a21.81,21.81,0,0,1,0-43.62Zm3.12-19.56v-20a22.06,22.06,0,0,1,18.6,20Z"/><path d="M485.83,231.43a21.88,21.88,0,0,1-21.78,19.68H448.87V231.43Zm5.76-3.12H454.93a21.81,21.81,0,0,1,21.6-18.89h15.06Z"/><path d="M219.13,334.91a21.74,21.74,0,0,1-21.78-21.78c0-13.2,11.52-21.9,24.12-21.9a25.82,25.82,0,0,1,3.72.24v42.6A22.4,22.4,0,0,1,219.13,334.91Zm9.18-42.9a22.87,22.87,0,0,1,17.16,22.2v19.86H228.31Z"/><path d="M253,314.21a22.8,22.8,0,0,1,17.16-22.14v51.54H253Zm20.28-22.68a21.1,21.1,0,0,1,3.36-.24c11.34,0,21.72,7.86,21.72,19.74a19.58,19.58,0,0,1-19.62,19.56,20.66,20.66,0,0,1-5.46-.72Z"/><path d="M304.93,314.21a22.8,22.8,0,0,1,17.16-22.14v51.54H304.93Zm20.28-22.68a21.1,21.1,0,0,1,3.36-.24c11.34,0,21.72,7.86,21.72,19.74a19.58,19.58,0,0,1-19.62,19.56,20.66,20.66,0,0,1-5.46-.72Z"/><path d="M379.21,330.77a17.75,17.75,0,0,0,15.66-9.36l3.54,1.86a21.79,21.79,0,0,1-41-10.38V292.37h21.78Z"/><path d="M423.13,331a17.75,17.75,0,0,0,15.66-9.36l3.54,1.86a21.69,21.69,0,0,1-19.2,11.46,21.81,21.81,0,0,1,0-43.62Zm3.12-19.56v-20a22.08,22.08,0,0,1,18.6,20Z"/><path d="M485.83,314.39a21.88,21.88,0,0,1-21.78,19.68H448.87V314.39Zm5.76-3.12H454.93a21.81,21.81,0,0,1,21.6-18.9h15.06Z"/><path d="M219.13,417.67a21.74,21.74,0,0,1-21.78-21.78c0-13.2,11.52-21.9,24.12-21.9a25.82,25.82,0,0,1,3.72.24v42.6A22.4,22.4,0,0,1,219.13,417.67Zm9.18-42.9A22.87,22.87,0,0,1,245.47,397v19.86H228.31Z"/><path d="M253,397a22.8,22.8,0,0,1,17.16-22.14v51.54H253Zm20.28-22.68a21.1,21.1,0,0,1,3.36-.24c11.34,0,21.72,7.86,21.72,19.74a19.58,19.58,0,0,1-19.62,19.56,20.66,20.66,0,0,1-5.46-.72Z"/><path d="M304.93,397a22.8,22.8,0,0,1,17.16-22.14v51.54H304.93Zm20.28-22.68a21.1,21.1,0,0,1,3.36-.24c11.34,0,21.72,7.86,21.72,19.74a19.58,19.58,0,0,1-19.62,19.56,20.66,20.66,0,0,1-5.46-.72Z"/><path d="M379.21,413.53a17.75,17.75,0,0,0,15.66-9.36l3.54,1.86a21.79,21.79,0,0,1-41-10.38V375.13h21.78Z"/><path d="M423.13,413.71a17.75,17.75,0,0,0,15.66-9.36l3.54,1.86a21.69,21.69,0,0,1-19.2,11.46,21.81,21.81,0,0,1,0-43.62Zm3.12-19.56v-20a22.08,22.08,0,0,1,18.6,20Z"/><path d="M485.83,397.15a21.88,21.88,0,0,1-21.78,19.68H448.87V397.15Zm5.76-3.12H454.93a21.81,21.81,0,0,1,21.6-18.9h15.06Z"/><rect class="clsa-3" x="174.52" y="100.96" width="342.78" height="342.78" rx="11.54"/></svg>
