<svg id="Layer_1" data-name="Layer 1" xmlns="http://www.w3.org/2000/svg" viewBox="0 0 651.13 523.54"><defs><style>.clslg-1{fill:#afafaf;}</style></defs><title>Lemon Girl</title><path d="M576.15,275.94c-3.42.54-6.9.87-10.24,1.72-1.43.37-3.67.91-3.79,2.74-.1,1.53,2,2.13,3.19,2.76,4.56,2.38,9.21,4.63,13.94,6.66,15.92,6.85,28.24,17.29,34.38,34a66.21,66.21,0,0,1,3.21,33.36c-.5,3.26-1.63,6.44-1.79,9.89-.89-4.91-1.52-9.9-2.72-14.74-4.46-18-14-31.8-32.39-38-2.69-.91-5.79-4.63-7.93-1.66s2,5.33,3.81,7.71c15.75,20.49,16.64,40.82,3.93,63.09a70.14,70.14,0,0,1-9.5,13.41c-1.1,1.17-2,2.66-4.3,3.26,2-5.06,4-9.74,5.84-14.47,4.48-11.48,5.79-23.48,2.8-35.29-3.67-14.52-13.67-25.65-30.7-25.4-3.65,0-5.91,1.54-6.77,5.26-3.7,15.95-9.07,31.3-17.75,45.26-12.79,20.57-25.5,41.2-38.85,61.4C468.7,454.77,451.7,466.65,432.19,475c-17.44,7.44-35.29,13.62-54,17.24-12.09,2.34-24.17,1.54-36.23.34-25.14-2.52-50.08-6.52-74.88-11.14a151.84,151.84,0,0,1-47.65-17,178.44,178.44,0,0,1-41-32.2c-9.72-10.13-17.58-21.63-24.57-33.72-5.18-9-10.26-10-18.14-3.17-11.54,10-17.08,22.7-17.44,37.75-.24,9.94-1,19.92,3.5,29.42,3.12,6.53,7.47,12.06,12.11,17.57-9.25-6-18.49-11.71-24.57-21.46-7.87-12.63-8.61-25.89-5.06-39.83a22.65,22.65,0,0,0,1-4.87c0-1.81,2-4.18.63-5.08-1.86-1.2-4.32.8-5.63,2.06-10.37,10-18.44,21.43-19.44,36.44-.34,5.12,0,10.28,0,16.29-2.77-1.94-2.82-4.39-3.67-6.36-4.25-9.89-5.23-20.48-4.14-30.84,1.24-11.66,7.16-21.68,15.48-30,5-5.06,10.19-10.07,16.61-13.48,1.34-.71,2.82-1.62,2.64-3.32-.2-1.93-2.15-1.83-3.53-2.15-3.24-.74-6.5-1.43-9.79-2a21.22,21.22,0,0,1-9-4A24.85,24.85,0,0,0,99.3,368.5c10.22-5.64,17.74-16.39,9.22-30.24-9.8-15.95-19.14-32.25-24.37-50.6A130.44,130.44,0,0,1,79,254.9c-.67-25.31,6.55-48.59,16.52-71.2,2.71-6.16,21.21-31.15,23.94-35.79,1.63-2.77,10.34-12.2,12.15-13.9,10.21-9.61,20.54-19.1,31.56-27.77a189,189,0,0,1,32.1-20.93c13.36-6.67,27.07-12.56,42-14.94,13.28-2.11,26.26-.68,38.45,5C297,85.41,312,102.26,324,122c8.52,14,15.7,28.65,20.21,44.42,5,17.42,8,35.1,3.1,53.16a9.69,9.69,0,0,1-.32,1.46c-.73,1.6-.87,4.72-2.55,4.34-2.46-.56-.46-3.1-.31-4.69,2-21.34-4.07-40.46-15.7-58.08-1.65-2.5-3.39-4.93-5.13-7.36-.15-.21-.58-.21-1.46-.49,6.15,27.48,9.05,54.53-6.52,80,6.27-23,2.64-45-5.39-66.9-1.78,25.8-6.69,50.26-26.58,69.21-1.35-1.82-.29-2.72.31-3.6,11.15-16.27,12.62-34.69,11.95-53.58a11.36,11.36,0,0,0-.29-2.48c-.73-2.77,1.14-7.07-1.92-8-2-.61-2.94,3.88-4.16,6.09-10.24,18.51-24,34.31-38.11,49.82a484.94,484.94,0,0,1-37.41,37.37c-4.51,4-8.45,7-7.94,9.1.44,1.81,4.61,2.75,8.8,5.81a29.89,29.89,0,0,0,4.19,2.7c6.55,3.26,8.32,2.44,12.82-3.4,14-18.18,37.5-24.77,58.48-14.74,1,.48,2.63.81,2.09,2.25-.47,1.28-2.08.71-3.15.61-9.46-.82-18.71.26-27.29,4.31-14.72,7-25.5,18.28-34.31,31.78-7,10.66-10.36,11.76-22.55,7.32-6.07-2.21-12.18-4.81-16.64-11.49,4.19.53,6.49,2.68,9.29,3.47a30.89,30.89,0,0,0,6.83,1.32c2.9.13,7.26,1.36,8.22-1.42s-3.8-2.62-5.82-4.14c-5-3.82-10.09-7.52-12.48-15.1,3.63,2.56,6.29,4.6,9.13,6.37a16.84,16.84,0,0,0,5.07,2c2.66.61,6.29,2.73,7.87.34,1.31-2-1.95-2.68-4.24-5.2-2.45-2.7-4.92-5.46-6.13-9.05-.42-1.25,0-3.43-.62-3.84-1.25-.87-3.75,1.26-5.45,2.58-5.27,4.07-10.41,8.3-15.82,12.17a173.06,173.06,0,0,1-50.33,24.9c-6.13,1.87-12.52,3.5-19.09,3.6-1.22,0-3-.75-3.5,1-.5,1.88,1.19,2.92,2.56,3.85,6.87,4.67,14.32,4,21.61,1.68,4.4-1.42,5.42-.38,5.63,4A139.46,139.46,0,0,0,153.62,377c11.65,25.58,27.53,47.93,49.88,65.12,19.44,14.95,40.58,26.41,65.48,30,11.33,1.64,22.58,4.56,34,5.08,7.29.34,14.43,1.82,21.55,2.61,5.81.65,11.88,2.49,17.9,3.3a114.81,114.81,0,0,0,40.19-1.32c2.16-.48,35.8-11.43,40.63-13.26,22.24-8.39,40.31-22.26,53.13-42.61,11-17.45,22.45-34.61,33.16-52.22,15.59-25.61,21.71-53.75,21.19-83.56-.57-33-10.09-63.21-27.1-91.29-1.79-3-5.75-5.6-5.07-8.83.75-3.58,5.86-2.49,8.75-4.2,4.86-2.87,10-5.29,13.71-9.81.51-.63,1.3-1.35.71-2.18s-1.54-.44-2.29-.09c-18.94,8.85-39.13,11.46-59.75,11.84-26.16.49-51.82-2.58-76.64-11.18-9.58-3.32-19.35-6.15-28.34-11a11.48,11.48,0,0,1-5.16-5.15c-5.21-10.41-10.47-20.81-15.88-31.12-1.78-3.39-1.52-6,.91-9.09,7.22-9.15,15.64-16.77,26.1-22.06,1-.49,2.32-.63,2.74-2.5-9.7-.08-17.69,4-25.28,9.15a45.61,45.61,0,0,0-9.28,9c-2,2.48-3.57,2-5-.4-1.72-2.85-3.35-5.75-5-8.66-1.25-2.25-.24-4.12,1.08-6,6.67-9.36,15-16.44,26.34-19.5,1.26-.34,2.47-.84,5.17-1.76a19.72,19.72,0,0,0-13.51.4c-8.93,3-17,7.65-23.18,15-2.32,2.77-3.72,2.5-5.75-.09-7.54-9.59-8.3-10,2.28-25.19,7.71-11.11,18.93-17.95,31-24.14,18-9.26,37-12.18,56.73-11.5,13.43.47,26.22,4.39,38.5,9.66,34.52,14.81,63.65,37.12,88.78,64.77,12,13.21,22.52,27.58,28.69,44.57,5.21,14.33,4,29.1,2,43.84-1.74,12.88-5.87,25.27-8.06,38.05-1.4,8.26-1.57,16.54,1.37,24.63,3.6,9.89,10.8,15.66,20.69,18.43,1.73.49,3.49.85,5.24,1.27Z"/><path d="M376,246.62c8.42-10.73,17.18-18.6,29.88-20.17,10.89-1.35,21.71-.79,31.23,5.67,3.39,2.3,5.79,1.28,8.32-1.2,4.7-4.6,7.25-10.26,8.53-16.6.21-1-.13-2.72,1.59-2.53,1.43.16,1.38,1.69,1.48,2.83a34.45,34.45,0,0,1-3.27,17.95c-.53,1.12-1.86,2.43-.48,3.58s2.91.08,4-.9c3.93-3.6,7.85-7.23,9.69-12.46.36-1,.45-2.64,2.12-2,1.12.4.8,1.7.69,2.65-.84,6.86-4,12.6-8.48,17.72-.73.84-2.14,1.69-1.41,2.9.9,1.49,2.45.47,3.61.12,5.77-1.77,10.22-5.37,13.87-10.09.61-.79,1.13-2.48,2.61-1.39.88.65.48,1.93.08,2.8a37,37,0,0,1-21.31,19.84c-2.27.86-4.19-.41-6-1.76-11.8-9.06-25.32-13.76-39.93-15.62-10.64-1.35-20.41,1.65-29.82,6.24-1.35.65-2.66,1.37-4,2A18.09,18.09,0,0,1,376,246.62Z"/><path d="M358.26,281.54c7.38.44,14.92,4.5,21.13,11.28.54.6,1.39,1.22.94,2.11-.64,1.28-1.7.47-2.59.24-19.79-4.89-37.1-.12-52.19,13.33-1,.85-1.95,2.41-3.31,1.45s-.08-2.47.45-3.53C329.68,292.44,339.18,281.82,358.26,281.54Z"/><path d="M223.41,342.65a8.21,8.21,0,0,1,8.17,7.63,8.44,8.44,0,0,1-7.81,8.07c-5,.13-8.73-3.44-8.66-8.19C215.17,346.14,219,342.71,223.41,342.65Z"/><path d="M269.21,342.83c0,4.53-3.56,7.57-8.64,7.44a7.54,7.54,0,0,1-7.4-7.17c0-4.32,3.85-7.77,8.57-7.71S269.23,338.32,269.21,342.83Z"/><path d="M441.18,289.67c-.12,4.14-3.58,7.21-8,7.09-4-.11-6.85-3.3-6.76-7.63s3.41-7.23,7.93-7.09C438.38,282.16,441.3,285.41,441.18,289.67Z"/><path d="M464.17,286.73a6.86,6.86,0,0,1-7.19-7.16c0-4,3.32-7.1,7.85-7.21a6.73,6.73,0,0,1,7,6.77A7.83,7.83,0,0,1,464.17,286.73Z"/><path d="M208.47,361.32c3.12.34,5.65,2.07,5.81,6.1a7.08,7.08,0,0,1-7.27,7.2c-3.9-.14-6.07-2.52-6.49-6.23S203.52,361.4,208.47,361.32Z"/><path d="M197.23,334.92c3,.22,6.17,1.14,6.18,5.12,0,3.65-2.54,5.7-6.15,5.69-3.37,0-5.8-2-6-5.34S193.29,335,197.23,334.92Z"/><path d="M484.18,293.35c-3.29-.25-5.81-1.38-6-4.9s1.94-5.75,5.38-5.9,5.86,1.72,5.85,5.37C489.38,291.2,487.35,293,484.18,293.35Z"/><path d="M498.27,328.18c-.09-9.1-6.65-16.86-14.8-17.7-1.5-.16-3.11-.3-4,1.34a2.47,2.47,0,0,0,1,3.46c6,3.49,1.58,4.24-1.39,5.23-15.83,5.26-32.41,5.85-48.78,6.87-26.16,1.63-52.07,4.27-77.09,12.48a227.92,227.92,0,0,0-41.39,18.37c-14,7.93-25.27,19.46-38.57,28.26-7.19,4.77-13.64,10.69-21.73,14.09-2.48,1-4.54,1.78-6-1.67-1-2.3-3.28-2.57-5.58-1.54-7.29,3.27-12.77,15.05-10.53,22.5.63,2.13,1.75,3.71,4.09,3.68,2.54,0,3.17-1.92,3.47-4.08.92-6.53,1.07-6.52,6.88-3,10.2,6.24,18.86,14.65,29.5,20.32,17.33,9.24,35.46,16.06,55,18.43a145.31,145.31,0,0,0,73.28-10.08c13.73-5.58,26.45-13,37-23.14a137.83,137.83,0,0,0,36.54-58.69,260.11,260.11,0,0,1,13.61-33.75c.42-.87.66-2.17,1.8-2.14s1.11,1.42,1.48,2.3c.77,1.83,1.42,4.16,4,3.59C499.14,332.69,497.92,329.91,498.27,328.18Zm-27.08,12.44,0,.05c-.15.5-.31,1-.46,1.48,0,.19-.11.37-.17.56l-.23.75c-.22.74-.44,1.48-.67,2.22l0,.11c-.34,1.09-.69,2.18-1.07,3.25l-.06.17c-.37,1.06-.78,2.1-1.24,3.13a1.42,1.42,0,0,1-.08.18c-.23.52-.47,1-.73,1.53h0c-1.12,2.7-2.26,5.34-3.46,7.88,0,.13,0,.25,0,.37v0a1,1,0,0,1-.56.84h0q-3.09,6.35-6.48,12c.14.13,0,.39-.22.37C404.89,459.37,303.32,431.16,292.37,429a28.73,28.73,0,0,1-6.44-1.78,68.73,68.73,0,0,1-9.54-5c-.58-.35-1.16-.71-1.72-1.09l-.46-.3L273,420l-.44-.32-1.24-.92-.35-.26-1.36-1h0c-1.65-1.24-2.62-2.06-2.62-2.06h0c-1.13-.88-2.25-1.77-3.39-2.62-2.37-1.77-2.79-3.48-.23-5.57q4.7-3.82,9.53-7.45t9.79-7q9.94-6.82,20.55-12.78c2.47-1.39,4.94-2.74,7.44-4.06q7.47-4,15.07-7.63,3.81-1.83,7.65-3.6,2.43-1.11,4.87-2.19c1.63-.72,3.26-1.42,4.89-2.12q7.37-3.12,14.83-5.9c1.66-.61,3.32-1.22,5-1.81a313.43,313.43,0,0,1,51.46-13.48q6.57-1.12,13.13-1.93a265.73,265.73,0,0,1,32.88-2c2.21,0,4.41,0,6.62.1l.72,0c.23,0,.44,0,.65.06a7.12,7.12,0,0,1,1.14.19l.48.14a3.09,3.09,0,0,1,.79.41,2.57,2.57,0,0,1,.29.28,1.84,1.84,0,0,1,.41.69A5.83,5.83,0,0,1,471.19,340.62Z"/><path class="clslg-1" d="M471.19,340.62c1.37-4.27-.19-5.22-4.15-5.33a266.41,266.41,0,0,0-52.63,3.81,325.74,325.74,0,0,0-81,25.5c-10.24,4.7-20.29,9.76-30.16,15.29a279.4,279.4,0,0,0-39.87,27.26c-2.56,2.09-2.14,3.8.23,5.57q1.71,1.29,3.39,2.63h0s1,.82,2.62,2.06a69,69,0,0,0,6.81,4.79c4.89,2.92,9.91,5.9,16,6.81,10.95,2.15,112.52,30.36,163.28-53.46.21,0,.36-.24.22-.37q3.39-5.65,6.48-12c.46-.22.58-.69.61-1.24,1.2-2.54,2.34-5.18,3.46-7.88C468.59,349.82,469.74,345.17,471.19,340.62Z"/></svg>
