<svg id="Layer_1" data-name="Layer 1" xmlns="http://www.w3.org/2000/svg" viewBox="0 0 651.13 311.47"><defs><style>.clsrs-1{fill:#9b9b9b;}</style></defs><title>Rising Star</title><path d="M516.37,74.33c-.25-3.49-3.22-5.88-7.08-5.51-2.92.27-7.5-2.25-7.66,3.92-.05,2-1.58,3.32-3.36,1.53-5.71-5.73-13.09-9.1-19.32-14.06-1.87-1.49-4.18-2.69-5.84-1.28-3.34,2.85-6.48,1.68-9.7.5-3.42-1.25-6.49-.52-9.55,1-1.79.87-3.55,1.81-5.35,2.66-2.85,1.34-4.71,1.26-6.81-2-4.1-6.41-10-10-18.21-10.16-7-.16-14.14,2.95-21.12-.69-1.48-.77-3.56.05-5.33.64a33.83,33.83,0,0,0-12.46,8C372.35,70.35,365.44,84.87,362,101.05c-2.29,10.85-2.91,21.75,4.61,31.27,1.39,1.77.34,2.59-1,3.57-4.32,3.23-7.16,7.69-10.06,12.13-1.12,1.71-1.61,5-4.84,3.83-3.05-1.1-3.36-3.94-2.92-6.68.61-3.75,1.44-7.46,2.31-11.16,1.46-6.22-1-9.35-7.52-9.55-2.29-.07-4.82.71-6.82-.69s-3.62-.7-5.4.41c-5.67,3.55-9.56,8.56-12.48,14.48-2.8,5.65-3.33,5.71-8.15,1.75-4.31-3.55-6.85-3.43-10.65.49-6.55,6.75-6.55,6.75-10.52-1.65-2.37-5-7.78-8.36-11.14-6.93-4.67,2-7.49,8.64-5.8,13.87a9.81,9.81,0,0,0,1.75,3.49c2,2.29,1,3.45-1.26,4.38-1.22.51-2.39,1.14-3.64,1.57-3.14,1.06-4.17-2.1-6.2-3.25-1.84-1-.91-2.58-.27-3.91,2.91-6,4.47-12.39,5.76-18.9,1.71-8.59-1.76-14.88-8.48-19.65-5.55-3.94-11-1.92-16.36.88-6,3.13-10.64,7.85-15.32,12.55-2,2-3.7,5.22-7.15,1.83a2,2,0,0,0-1.82.17c-4.7,3.42-10.47,5.7-11,13-.66,8.81-4,16.84-7.93,24.81a340.27,340.27,0,0,0-21.06,53c-3.29,11-5.82,22.1-5,33.69.33,4.88,4.2,11.22,7.8,11.85,5.29.92,7.56-3.26,9.88-6.85a74.32,74.32,0,0,0,3.58-7.07c.78-1.56.93-3.53,3.21-4.55,1.36,2.65,1.72,5.68,3.52,8.1,6.29,8.49,11.91,8.48,17.82-.28,1.48-2.19,2.73-4.54,4-6.86.85-1.54,1.87-2.86,3.8-2.68,3.07.29,5-1.51,6.75-3.54a7.15,7.15,0,0,1,6.6-2.64c6.09.67,10.64-2.15,14.13-6.74,2.8-3.68,5.63-7.46,7.12-11.9,1.35-4,2.76-5.67,6.67-2.19,3.67,3.27,7.87,2.22,10.47-1.23,2.38-3.17,5-3.76,8.49-3.77,7.78,0,8.53-.68,9.53-8.1.53-4,2.29-4.64,5.12-2.07a7.14,7.14,0,0,0,6.95,1.66c4.69-1.25,5,1.45,4,4.47-3,9.5-2.65,19.23-3,29-.27,8.22,3,13.94,9.55,18.39,4.28,2.92,8.32,2.74,12.17-.79s5.85-8.39,7.69-13.18c5.52-14.32,5.95-29.35,6.15-44.41,0-1.57-.47-3.57,1.6-4.26,1.7-.56,2.67,1,3.77,1.92,2.85,2.51,5.59,5.15,9.55,5.93,10.28,2,18.42-2.43,25.72-8.77a96.71,96.71,0,0,0,24.19-31.19,5.21,5.21,0,0,1,3.93-3.35c6.15-1.18,2-8.05,8.76-7.67,2.71.83,8.9-3,9.07-3.24,2-4.66,2-5,6.95-1.76,2.89.61,7.65-3.53,9.1-4.3,1.19-.64,5.35.81,6.67,1.3,9.22,3.37,14-2.25,18-9,4.77-7.92,4.66-8,11.93-2.48,6.58,5,10.63,5.11,15.92-1C513.89,111.61,517.76,93.62,516.37,74.33ZM279.08,136.16c1.94-.29,2,1.9,1.92,3.34-.1,2.84-.33,6.13-3.56,6.9-2.25.54-2.42-2.12-2.83-4C275.24,139.76,275.71,136.65,279.08,136.16Zm124.49,11.23c-7.3,16.46-17.29,31-33.31,40.35-8.74,5.13-15.48,3.48-21-4.85-2.51-3.8-6.24-1.63-9.48-1.45-2.94.16-3,2.23-3,4.61.09,15.91.2,31.83-5.47,47.1a43.71,43.71,0,0,1-5.62,10.46c-3.52,4.88-8.79,4.13-11.08-1.49a13.29,13.29,0,0,1-1-4.34c-.79-16.29.92-32.11,9.14-46.63,1-1.86,2.14-4,3.79-5.16,6.63-4.85,6.91-11.41,5.59-18.88-1.82,1.23-1.83,3.19-2.33,4.78a31.44,31.44,0,0,1-5.1,9.6c-4.8,6.3-7.78,6.38-12.92.23-1.86,2-2.48,4.62-3.78,6.86s-2.78,5-6,4.21c-2.86-.7-3.25-3.44-3.46-6-.71-8.68.84-17.16,2.21-25.66.53-3.23,1.09-6.46,1.79-10.65-4.93,4.61-5.81,10.13-7.71,15.08-3.65,9.53-4.22,19.73-6,29.66-.18,1-.23,2-.42,2.95-.23,1.21-.81,2.42-2.18,2.26-1.54-.18-1.45-1.63-1.3-2.78.65-4.92,1.44-9.83,2-14.76.85-6.91,1.67-13.82,2.32-20.74.22-2.38.72-4.92-1-7.6-3.31,3.7-3.3,8.34-4.46,12.41-2.93,10.34-5.39,20.81-8,31.24a26.1,26.1,0,0,1-3,6.79c-1,1.75-2.13,3.53-4.6,3-2.23-.48-3.15-2.23-3.78-4.21-1.29-4.11-.33-8.22-.13-12.34.06-1.4.88-2.83-.35-4.75-3.21,4.95-7.33,8.77-7.72,15.17-.51,8.15-4.27,15.26-9.7,21.33-3.47,3.87-7.75,5.88-12.88,3.22-2.44-1.27-3.18.35-4.34,1.77-2.14,2.63-3.45,6.93-8.45,3.54-1.54-1.05-2.25,1.37-2.88,2.62-2.17,4.28-4,8.75-7.18,12.44-1.38,1.59-2.48,3.89-5.12,3.18-2.37-.64-3.16-2.82-3.68-5-2.06-8.41-2.5-17-3-25.62A6,6,0,0,0,197.9,216a51.26,51.26,0,0,0-2.54,5.49c-3,8.95-5.58,18-10.45,26.23a33.37,33.37,0,0,1-2.41,3.76c-.94,1.17-2.15,2.32-3.79,2-2-.45-2.23-2.3-2.37-4-.63-7.19.69-14.21,2.19-21.17,4.62-21.51,12.56-41.86,22.75-61.28,4.6-8.76,8.11-17.64,9.37-27.44.21-1.62,0-3.74,2.62-4.74,1.34,3.3-.4,6.53.11,10.14,5.23-4,8.38-9.42,12.37-14.05,5-5.81,10.24-11.31,16.68-15.54a30.7,30.7,0,0,1,5.25-2.79c7.33-3,12.18.34,12,8.29-.15,7-2.22,13.7-4.83,20.19-5.28,13.11-14,23.85-23.58,34a105,105,0,0,1-20.48,17.09A6.14,6.14,0,0,0,208,196c-3.23,12.8-4.85,25.71-2.37,38.86a18.06,18.06,0,0,0,.64,2.4c.42,1.24.66,2.84,2.2,3s2.29-1.23,2.89-2.4c3.15-6.2,6.21-12.44,7.5-19.38q2.49-13.42,5.12-26.83a18.26,18.26,0,0,1,1.33-4.23,2.27,2.27,0,0,1,2.54-1.17c1.31.26,1.25,1.48,1.13,2.39-.54,3.94-1.11,7.87-1.82,11.78a147.48,147.48,0,0,0-2,18.74c-.06,1.24-.46,3,1.19,3.42s2.19-1.13,2.69-2.37c5.62-14,12.69-27.42,16.54-42.11,1.08-4.16,2.21-8.32,3-12.54.46-2.29,1.87-3.29,3.76-4.15,2.93-1.34,3.92-.32,3.82,2.68-.23,6.62-.4,13.25-.45,19.87,0,1.56-.29,3.29,1.21,5.27,5.71-8,10.79-15.95,13.3-25.31.13-.47.13-1,.3-1.45.56-1.59.28-4.5,2.67-3.94s.91,3.22.6,4.73c-2,9.74-3.43,19.58-4.64,29.44-.27,2.22-.8,4.56.66,7.67,3-4.22,4-8.66,5.15-12.92,2.42-9.1,4.44-18.31,6.72-27.45a20.46,20.46,0,0,1,2-5.05c1.27-2.25,2.2-5.32,5.37-5.28s3,3.52,4.32,5.73c3.25-2.4,3.78-6.53,6.26-9.32,1.49-1.67,2.52-4.55,5.24-3.77,2.95.85,2.11,3.81,1.87,6-.76,7.23-1.76,14.44-2.58,21.67-.39,3.45-.73,6.92-.83,10.39-.06,1.71-.68,4.46,1.23,4.85,2.33.47,3.29-2.15,4.23-4.08,2.89-6,2.13-12.68,4-18.89,2.8-9.55,5.8-19,11.63-27.22a13,13,0,0,1,1.79-2.38c1.76-1.51,3.45-5.16,5.75-3.39,3.21,2.46-1,4.1-2.23,5.75-9.15,12.09-13,25.9-13.71,40.77-.11,2.16-.17,4.71,2.41,5.42,2.41.67,3.93-1.31,5.28-3,2.94-3.71,4.58-8.1,5.84-12.54,3-10.68,5.64-21.47,6.42-32.6,0-.66.13-1.32.23-2,.27-1.73,1.21-2.71,3-2.52,2.36.24,1.78,1.9,1.55,3.36-1.18,7.69-2.44,15.36-3.55,23.06-1,6.58-.76,13.22-.7,19.85,0,2.78,1,3.68,4,3.28,9.66-1.32,7.59.32,10-8.51,1-3.48,3.56-6.66,1.83-10.91-.4-1,3.4-2,4.47-4.42a44.7,44.7,0,0,1,7.54-11.64c1.82-2,3.85-5.15,6.95-3.06,3.58,2.42,1.36,5.65-.27,8.32-2.47,4-6.09,7-9.83,9.76-7.18,5.35-8.31,13.18-8.47,21.24-.06,3.26,2.22,4.92,5.5,5.28a17.24,17.24,0,0,0,12.18-3.54c17.62-12.76,29.13-29.6,33.43-51.09a15.37,15.37,0,0,0,.26-3c-.05-9.11-3.94-11.41-11.88-6.86-4.89,2.8-9.45,6.17-14.42,8.8-5.55,2.94-8.95,1.49-11.49-4.25a21.51,21.51,0,0,1-2.12-10.14c1.51-21.15,9.25-39.47,25.16-53.94a29.63,29.63,0,0,1,8.47-5.15c2.9-1.25,5.72-1.11,7.94.9,2,1.84,3.89,2.1,6.45.95-5,7-2.73,15.5-5.63,22.85-2,5.07-3.46,10.37-6,15.24a20.38,20.38,0,0,1-3.15,4.41,5.29,5.29,0,0,1-5.86,1.74c-2.19-.79-2.64-2.93-2.79-4.91-.67-8.77,3.43-16,7.78-23.12a80,80,0,0,1,6.32-8.3c1.41-1.75,2.91-3.51,1.34-5.74-1.77-2.53-4.15-1.47-6.24-.43C388.75,63.21,382.78,71,378.34,79.8a85.49,85.49,0,0,0-9,30.33,27.16,27.16,0,0,0,.17,6.92c.7,4.4,3.41,5.9,7.51,4.21,4.64-1.91,8.6-5,12.77-7.69,9.22-6,15.36-3.53,17.79,7.21C409.68,130.13,407.27,139.05,403.57,147.39ZM217.26,203.93,214.47,219c-.7-5.31.62-10.28,1.57-15.31Zm164-61.08c-4.61-4.44-.65-4.95,2.53-6,4-1.37,7.08-4.24,10.67-6.28,1.36-.77,2.62-2.7,4.3-1.3,1.24,1,.44,2.75.05,4.2-3.28,12.23-9.56,22.84-17.9,32.21-4.16,4.66-8.24,9.55-14.15,12.3-1.21.56-2.35,1.63-3.6.58s-.95-2.46-.61-3.73c1-3.53,2.22-6.68,5.54-9a41.79,41.79,0,0,0,11.54-12.18c1.28-2.11,2.57-4.29,2.59-7C381.87,145.31,382,143.6,381.21,142.85Zm5.61-34.1c-1.63.9-2.7,3.35-5,2.46-1.4-.54-1.2-2.29-.93-3.54.57-2.64.38-5.54,2.38-8.11,1.45,2.13,2.69,4,4,5.84C388.23,106.71,388.24,108,386.82,108.75Zm22.81.65a2.28,2.28,0,0,1-1.56-2.21c0-.81.54-1.16,1.26-.9a2.3,2.3,0,0,1,1.61,2.18C410.81,109.22,410.37,109.65,409.63,109.4Zm84.08,9c-1.78,2.45-4.24,4.53-7.61,3.71s-4.93-3.69-5.88-6.82c-2.35-7.76-.42-15.46.46-23.16.26-2.3,1-4.54,1.27-6.83.17-1.55,1.89-4-.9-4.49-2.18-.39-4.82.16-5.53,3.06a42.46,42.46,0,0,0-.78,5.41,91.48,91.48,0,0,1-10.65,34.43,16.82,16.82,0,0,1-5,6.1c-3.86,2.65-6.18,1.89-7.74-2.45-.32-.9-.26-2.23-1.54-2.14-.6,0-1.15,1-1.69,1.65a4.83,4.83,0,0,0-.52.85c-1.76,3.13-3.9,6.33-7.82,6-4.35-.32-4.5-4.7-6.06-8.56-1.73,3.84-3,7.25-4.74,10.43-3.76,7-7.55,7.32-12.36,1.18-2.18,1.51-1.41,4.72-3.53,6.3-1.39-.71-.75-1.86-.49-2.58,5.54-15.1,2.57-31.3,6.05-46.66.49-2.13-.42-2.83-2.43-1.72a17.61,17.61,0,0,1-2.66,1.37c-1.69.57-3.76,3.3-5,.91-1.08-2.05,2-3.13,3.64-3.83,6.25-2.71,9.26-7.18,9.69-14A31.52,31.52,0,0,1,427,61.12c1.09-1.67,2.46-3.57,4.67-3.2,2.51.42,2.41,2.94,2.52,4.84a57.75,57.75,0,0,1-.06,8.92c-.33,3.57,1,3.62,3.63,2.21,5.41-2.9,10.86-5.71,16.31-8.53,1.72-.9,3.36-2.17,5.58-1.69.51,1.74-1.06,1.85-1.89,2.3-1.9,1-3.94,1.76-5.88,2.71-10.43,5.14-20.78,9.86-21.81,24.09-.52,7.12-4.13,13.93-7.23,20.55-3,6.42-2.5,13.25-2.33,20,0,1.3.21,2.89,1.65,3.36,1.83.59,2.74-1.06,3.44-2.25,3.56-6.05,5.45-12.77,7.47-19.42,2.61-8.54,4.32-17.39,8.7-25.33,2.74-5,5.92-9.62,10.67-12.91,4-2.79,6.35-2.12,7.88,2.55s2.43,9.45.45,14.52c-3.38,8.69-5.54,17.72-4.89,27.17.12,1.7-.41,4.14,1.85,4.65s3.51-1.68,4.3-3.45c5.44-12.2,8-25.21,10.57-38.21.34-1.74-.55-3.25-1.18-4.76-1.89-4.56-.53-8.79,1.3-13,.45-1,1.06-2.3,2.5-2s1.56,1.6,1.75,2.73c.62,3.56.22,7.16,0,11.1,3.37-.51,5.38-2.56,7.67-4.09,1.13-.76,1.94-2.67,3.74-1.53s1.15,2.92.72,4.5c-1.09,4-2.27,8-3.37,12a51.88,51.88,0,0,0-1.13,20.23c.33,2.69.28,6.17,3.56,7.07,3.69,1,5.11-2.49,6.75-4.8,6.19-8.76,8.82-18.82,10.24-29.27.3-2.21.58-4.43.87-6.65C507.39,91.44,503,105.66,493.71,118.37Z"/><path d="M210.85,186.42a129,129,0,0,0,27.55-26,78.44,78.44,0,0,0,16.24-34.15c.63-3.22,1.91-7.46-1.58-9.65s-6.8.72-9.39,2.78c-19.5,15.6-34.73,34-37.54,60-.35,3.21-2.21,6.26-1,10.23C207.19,188.46,209.13,187.6,210.85,186.42ZM236,139.93c3.55-3.45,7.06-6.92,10.6-10.37.71-.69,1.47-1.44,2.58-1s.78,1.31,1,2.26a73.09,73.09,0,0,1-6.61,15.75c-.77,1.26-1.91,1-3,.19a18.91,18.91,0,0,0-3.65-2.47C234.22,143.17,234,141.86,236,139.93Zm-2,8.21c2.18-.38,2.6,1.74,2.2,3.48-.62,2.68-1,5.91-4.39,6.47-2.44.41-2.09-1.91-2.28-3.65C230.38,152,230.72,148.71,234,148.14ZM217.69,166.5c.79-4.06,3.61-7.37,5.74-10.9a16,16,0,0,0,.75-1.56c1,.53,1.49.64,1.53.83a18.25,18.25,0,0,0,3.34,8c2.71,3.56-2.24,4.62-3.46,7a2.33,2.33,0,0,1-.66.74c-2.51,1.86-4.45,6.6-7.72,4.69C214.41,173.61,217.12,169.4,217.69,166.5Z"/><path d="M317.72,234.91c.42,2,.38,4.93,2.94,5.14,2.36.2,3.32-2.38,4.06-4.38a84.25,84.25,0,0,0,4.21-17.83c1.43-10.73,2.56-21.51,3.81-32.27-11.82,11.54-12.49,26.55-15,41A22.33,22.33,0,0,0,317.72,234.91Z"/><path d="M183.42,235.74c5.79-8.48,20.45-50.49,18.27-58.37C193,196.54,187.61,216,183.42,235.74Z"/><path d="M393.48,95.69c1.86,1,3.16-.38,4.21-1.62A14.15,14.15,0,0,0,400,90.3a62.19,62.19,0,0,0,4.6-22.1c-5.33,7.24-10.05,14.67-12,23.47C392.23,93.07,391.87,94.81,393.48,95.69Z"/><path d="M237.08,213.56c-1.57,2.48-2.53,5.55.31,7.53,2.6,1.81,4.69-.53,6.19-2.47,3.52-4.58,5.86-9.81,8.42-15.68-2.71.2-3.61,1.81-5,2.66C243.39,207.86,239.45,209.8,237.08,213.56Z"/><path d="M242.8,201.83a2.55,2.55,0,0,0,1.82-.34c6.46-3.17,8.69-14.42,3.78-20.2-2.19,6.16-4.76,12-6,18.35C242.27,200.45,241.93,201.38,242.8,201.83Z"/><path d="M457.88,85.86c-.2-2.31-.24-4.9-2.86-5.84s-4.26,1.14-5.84,2.81a12.12,12.12,0,0,0-1.44,2c-6.52,10.88-9.47,22.8-10,35.36a18.84,18.84,0,0,0,1.11,5.8c1.09,3.84,3.3,3.64,5.8,1.3a10.57,10.57,0,0,0,2.44-3.1,139.75,139.75,0,0,0,10.81-35.87C457.89,87.51,458,86.68,457.88,85.86Z"/><path d="M428.24,84.74c-4.55,2-7,11-4.87,17.68C426.41,96.64,427.55,90.93,428.24,84.74Z"/><path d="M426.67,79.83c1.58.47,2.94-1,3.28-2.36.84-3.41,1.56-6.92-.15-10.7-3.3,2.75-2.71,6.5-3.6,9.68C425.88,77.57,424.86,79.3,426.67,79.83Z"/><path class="clsrs-1" d="M389.78,113.57c-4.17,2.71-8.13,5.78-12.77,7.69-4.1,1.69-6.81.19-7.51-4.21a27.16,27.16,0,0,1-.17-6.92,85.49,85.49,0,0,1,9-30.33C382.78,71,388.75,63.21,398,58.65c2.09-1,4.47-2.1,6.24.43,1.57,2.23.07,4-1.34,5.74a80,80,0,0,0-6.32,8.3c-4.35,7.08-8.45,14.35-7.78,23.12.15,2,.6,4.12,2.79,4.91a5.29,5.29,0,0,0,5.86-1.74A20.38,20.38,0,0,0,400.56,95c2.51-4.87,4-10.17,6-15.24,2.9-7.35.66-15.84,5.63-22.85-2.56,1.15-4.43.89-6.45-.95-2.22-2-5-2.15-7.94-.9a29.63,29.63,0,0,0-8.47,5.15C373.39,74.68,365.65,93,364.14,114.15a21.51,21.51,0,0,0,2.12,10.14c2.54,5.74,5.94,7.19,11.49,4.25,5-2.63,9.53-6,14.42-8.8,7.94-4.55,11.83-2.25,11.88,6.86a15.37,15.37,0,0,1-.26,3c-4.3,21.49-15.81,38.33-33.43,51.09a17.24,17.24,0,0,1-12.18,3.54c-3.28-.36-5.56-2-5.5-5.28.16-8.06,1.29-15.89,8.47-21.24,3.74-2.79,7.36-5.73,9.83-9.76,1.63-2.67,3.85-5.9.27-8.32-3.1-2.09-5.13,1-6.95,3.06a44.7,44.7,0,0,0-7.54,11.64c-1.07,2.38-4.87,3.44-4.47,4.42,1.73,4.25-.88,7.43-1.83,10.91-2.43,8.83-.36,7.19-10,8.51-2.95.4-3.94-.5-4-3.28-.06-6.63-.26-13.27.7-19.85,1.11-7.7,2.37-15.37,3.55-23.06.23-1.46.81-3.12-1.55-3.36-1.83-.19-2.77.79-3,2.52-.1.65-.18,1.31-.23,2-.78,11.13-3.39,21.92-6.42,32.6-1.26,4.44-2.9,8.83-5.84,12.54-1.35,1.7-2.87,3.68-5.28,3-2.58-.71-2.52-3.26-2.41-5.42.71-14.87,4.56-28.68,13.71-40.77,1.25-1.65,5.44-3.29,2.23-5.75-2.3-1.77-4,1.88-5.75,3.39a13,13,0,0,0-1.79,2.38c-5.83,8.24-8.83,17.67-11.63,27.22-1.82,6.21-1.06,12.92-4,18.89-.94,1.93-1.9,4.55-4.23,4.08-1.91-.39-1.29-3.14-1.23-4.85.1-3.47.44-6.94.83-10.39.82-7.23,1.82-14.44,2.58-21.67.24-2.19,1.08-5.15-1.87-6-2.72-.78-3.75,2.1-5.24,3.77-2.48,2.79-3,6.92-6.26,9.32-1.36-2.21-1.07-5.68-4.32-5.73s-4.1,3-5.37,5.28a20.46,20.46,0,0,0-2,5.05c-2.28,9.14-4.3,18.35-6.72,27.45-1.14,4.26-2.15,8.7-5.15,12.92-1.46-3.11-.93-5.45-.66-7.67,1.21-9.86,2.64-19.7,4.64-29.44.31-1.51,1.76-4.18-.6-4.73s-2.11,2.35-2.67,3.94c-.17.46-.17,1-.3,1.45-2.51,9.36-7.59,17.31-13.3,25.31-1.5-2-1.22-3.71-1.21-5.27.05-6.62.22-13.25.45-19.87.1-3-.89-4-3.82-2.68-1.89.86-3.3,1.86-3.76,4.15-.84,4.22-2,8.38-3,12.54-3.85,14.69-10.92,28.11-16.54,42.11-.5,1.24-1.12,2.77-2.69,2.37s-1.25-2.18-1.19-3.42a147.48,147.48,0,0,1,2-18.74c.71-3.91,1.28-7.84,1.82-11.78.12-.91.18-2.13-1.13-2.39a2.27,2.27,0,0,0-2.54,1.17,18.26,18.26,0,0,0-1.33,4.23q-2.62,13.41-5.12,26.83c-1.29,6.94-4.35,13.18-7.5,19.38-.6,1.17-1.38,2.56-2.89,2.4s-1.78-1.77-2.2-3a18.06,18.06,0,0,1-.64-2.4c-2.48-13.15-.86-26.06,2.37-38.86a6.14,6.14,0,0,1,2.86-3.89A105,105,0,0,0,231.29,175c9.63-10.12,18.3-20.86,23.58-34,2.61-6.49,4.68-13.14,4.83-20.19.16-8-4.69-11.25-12-8.29a30.7,30.7,0,0,0-5.25,2.79c-6.44,4.23-11.67,9.73-16.68,15.54-4,4.63-7.14,10.07-12.37,14.05-.51-3.61,1.23-6.84-.11-10.14-2.64,1-2.41,3.12-2.62,4.74-1.26,9.8-4.77,18.68-9.37,27.44-10.19,19.42-18.13,39.77-22.75,61.28-1.5,7-2.82,14-2.19,21.17.14,1.65.36,3.5,2.37,4,1.64.37,2.85-.78,3.79-2a33.37,33.37,0,0,0,2.41-3.76c4.87-8.19,7.48-17.28,10.45-26.23A51.26,51.26,0,0,1,197.9,216a6,6,0,0,1,1.13,3.42c.51,8.6.95,17.21,3,25.62.52,2.13,1.31,4.31,3.68,5,2.64.71,3.74-1.59,5.12-3.18,3.19-3.69,5-8.16,7.18-12.44.63-1.25,1.34-3.67,2.88-2.62,5,3.39,6.31-.91,8.45-3.54,1.16-1.42,1.9-3,4.34-1.77,5.13,2.66,9.41.65,12.88-3.22,5.43-6.07,9.19-13.18,9.7-21.33.39-6.4,4.51-10.22,7.72-15.17,1.23,1.92.41,3.35.35,4.75-.2,4.12-1.16,8.23.13,12.34.63,2,1.55,3.73,3.78,4.21,2.47.53,3.58-1.25,4.6-3a26.1,26.1,0,0,0,3-6.79c2.58-10.43,5-20.9,8-31.24,1.16-4.07,1.15-8.71,4.46-12.41,1.73,2.68,1.23,5.22,1,7.6-.65,6.92-1.47,13.83-2.32,20.74-.61,4.93-1.4,9.84-2,14.76-.15,1.15-.24,2.6,1.3,2.78,1.37.16,2-1.05,2.18-2.26.19-1,.24-2,.42-2.95,1.8-9.93,2.37-20.13,6-29.66,1.9-4.95,2.78-10.47,7.71-15.08-.7,4.19-1.26,7.42-1.79,10.65-1.37,8.5-2.92,17-2.21,25.66.21,2.56.6,5.3,3.46,6,3.2.78,4.66-1.91,6-4.21s1.92-4.86,3.78-6.86c5.14,6.15,8.12,6.07,12.92-.23a31.44,31.44,0,0,0,5.1-9.6c.5-1.59.51-3.55,2.33-4.78,1.32,7.47,1,14-5.59,18.88-1.65,1.2-2.74,3.3-3.79,5.16-8.22,14.52-9.93,30.34-9.14,46.63a13.29,13.29,0,0,0,1,4.34c2.29,5.62,7.56,6.37,11.08,1.49a43.71,43.71,0,0,0,5.62-10.46c5.67-15.27,5.56-31.19,5.47-47.1,0-2.38.1-4.45,3-4.61,3.24-.18,7-2.35,9.48,1.45,5.52,8.33,12.26,10,21,4.85,16-9.4,26-23.89,33.31-40.35,3.7-8.34,6.11-17.26,4-26.61C405.14,110,399,107.57,389.78,113.57ZM400,90.3a14.15,14.15,0,0,1-2.29,3.77c-1.05,1.24-2.35,2.64-4.21,1.62-1.61-.88-1.25-2.62-.94-4,2-8.8,6.71-16.23,12-23.47A62.19,62.19,0,0,1,400,90.3Zm-193.85,89c2.81-26,18-44.38,37.54-60,2.59-2.06,5.89-5,9.39-2.78s2.21,6.43,1.58,9.65a78.44,78.44,0,0,1-16.24,34.15,129,129,0,0,1-27.55,26c-1.72,1.18-3.66,2-5.68,3.15C203.92,185.6,205.78,182.55,206.13,179.34Zm-22.71,56.4c4.19-19.78,9.54-39.2,18.27-58.37C203.87,185.25,189.21,227.26,183.42,235.74Zm59-36.1c1.21-6.33,3.78-12.19,6-18.35,4.91,5.78,2.68,17-3.78,20.2a2.55,2.55,0,0,1-1.82.34C241.93,201.38,242.27,200.45,242.43,199.64Zm1.15,19c-1.5,1.94-3.59,4.28-6.19,2.47-2.84-2-1.88-5.05-.31-7.53,2.37-3.76,6.31-5.7,9.95-8,1.36-.85,2.26-2.46,5-2.66C249.44,208.81,247.1,214,243.58,218.62Zm85.35-.78a84.25,84.25,0,0,1-4.21,17.83c-.74,2-1.7,4.58-4.06,4.38-2.56-.21-2.52-3.1-2.94-5.14a22.33,22.33,0,0,1,.06-8.39c2.47-14.4,3.14-29.41,15-41C331.49,196.33,330.36,207.11,328.93,217.84Z"/><path class="clsrs-1" d="M505.2,82.23c-1.42,10.45-4.05,20.51-10.24,29.27-1.64,2.31-3.06,5.81-6.75,4.8-3.28-.9-3.23-4.38-3.56-7.07A51.88,51.88,0,0,1,485.78,89c1.1-4,2.28-8,3.37-12,.43-1.58,1.1-3.35-.72-4.5s-2.61.77-3.74,1.53c-2.29,1.53-4.3,3.58-7.67,4.09.19-3.94.59-7.54,0-11.1-.19-1.13-.43-2.45-1.75-2.73s-2.05,1-2.5,2c-1.83,4.16-3.19,8.39-1.3,13,.63,1.51,1.52,3,1.18,4.76-2.55,13-5.13,26-10.57,38.21-.79,1.77-1.93,4-4.3,3.45s-1.73-3-1.85-4.65c-.65-9.45,1.51-18.48,4.89-27.17,2-5.07,1.1-9.8-.45-14.52s-3.86-5.34-7.88-2.55c-4.75,3.29-7.93,7.93-10.67,12.91-4.38,7.94-6.09,16.79-8.7,25.33-2,6.65-3.91,13.37-7.47,19.42-.7,1.19-1.61,2.84-3.44,2.25-1.44-.47-1.62-2.06-1.65-3.36-.17-6.78-.68-13.61,2.33-20,3.1-6.62,6.71-13.43,7.23-20.55,1-14.23,11.38-19,21.81-24.09,1.94-1,4-1.7,5.88-2.71.83-.45,2.4-.56,1.89-2.3-2.22-.48-3.86.79-5.58,1.69-5.45,2.82-10.9,5.63-16.31,8.53-2.62,1.41-4,1.36-3.63-2.21a57.75,57.75,0,0,0,.06-8.92c-.11-1.9,0-4.42-2.52-4.84-2.21-.37-3.58,1.53-4.67,3.2a31.52,31.52,0,0,0-5.15,15.41c-.43,6.86-3.44,11.33-9.69,14-1.59.7-4.72,1.78-3.64,3.83,1.27,2.39,3.34-.34,5-.91a17.61,17.61,0,0,0,2.66-1.37c2-1.11,2.92-.41,2.43,1.72-3.48,15.36-.51,31.56-6.05,46.66-.26.72-.9,1.87.49,2.58,2.12-1.58,1.35-4.79,3.53-6.3,4.81,6.14,8.6,5.84,12.36-1.18,1.71-3.18,3-6.59,4.74-10.43,1.56,3.86,1.71,8.24,6.06,8.56,3.92.29,6.06-2.91,7.82-6a4.83,4.83,0,0,1,.52-.85c.54-.6,1.09-1.6,1.69-1.65,1.28-.09,1.22,1.24,1.54,2.14,1.56,4.34,3.88,5.1,7.74,2.45a16.82,16.82,0,0,0,5-6.1,91.48,91.48,0,0,0,10.65-34.43,42.46,42.46,0,0,1,.78-5.41c.71-2.9,3.35-3.45,5.53-3.06,2.79.5,1.07,2.94.9,4.49-.24,2.29-1,4.53-1.27,6.83-.88,7.7-2.81,15.4-.46,23.16.95,3.13,2.46,6,5.88,6.82s5.83-1.26,7.61-3.71c9.26-12.71,13.68-26.93,12.36-42.79C505.78,77.8,505.5,80,505.2,82.23Zm-79-5.78c.89-3.18.3-6.93,3.6-9.68,1.71,3.78,1,7.29.15,10.7-.34,1.4-1.7,2.83-3.28,2.36C424.86,79.3,425.88,77.57,426.2,76.45Zm2,8.29c-.69,6.19-1.83,11.9-4.87,17.68C421.22,95.78,423.69,86.71,428.24,84.74Zm18.84,39.47a10.57,10.57,0,0,1-2.44,3.1c-2.5,2.34-4.71,2.54-5.8-1.3a18.84,18.84,0,0,1-1.11-5.8c.54-12.56,3.49-24.48,10-35.36a12.12,12.12,0,0,1,1.44-2c1.58-1.67,3.18-3.76,5.84-2.81s2.66,3.53,2.86,5.84c.07.82,0,1.65,0,2.48A139.75,139.75,0,0,1,447.08,124.21Z"/><path class="clsrs-1" d="M277.44,146.4c3.23-.77,3.46-4.06,3.56-6.9.06-1.44,0-3.63-1.92-3.34-3.37.49-3.84,3.6-4.47,6.21C275,144.28,275.19,146.94,277.44,146.4Z"/><ellipse class="clsrs-1" cx="232.95" cy="153.12" rx="5.44" ry="3.2" transform="translate(-7.29 294.52) rotate(-63.8)"/></svg>
